<svg width="94" height="94" viewBox="0 0 94 94" fill="none" xmlns="http://www.w3.org/2000/svg">
<path d="M93.7999 46.6004C93.7999 55.8004 91.0999 64.4004 86.4999 71.6004C83.1999 76.8004 78.7999 81.3004 73.6999 84.9004C70.9999 86.8004 68.0999 88.4004 64.8999 89.7004C59.3999 92.0004 53.3999 93.2004 47.0999 93.2004C46.6999 93.2004 46.3999 93.2004 45.9999 93.2004C34.7999 92.9004 24.4999 88.7004 16.5999 81.9004C15.1999 80.7004 13.8999 79.4004 12.6999 78.1004C5.09992 69.8004 0.399902 58.8004 0.399902 46.6004C0.399902 20.8004 21.2999 0.00035736 46.9999 0.00035736C72.8999 -0.0996426 93.7999 20.8004 93.7999 46.6004Z" fill="#EDDDD6"/>
<path d="M73.7998 84.8005C71.0998 86.7005 68.1998 88.3005 64.9998 89.6005C59.4998 91.9005 53.4998 93.1005 47.1998 93.1005C46.7998 93.1005 46.4998 93.1005 46.0998 93.1005C34.8998 92.8005 24.5998 88.6006 16.6998 81.8006C15.2998 80.6006 13.9998 79.3005 12.7998 78.0005C16.0998 70.9005 23.6998 57.5006 35.5998 54.3006C35.6998 54.3006 35.8998 54.2005 35.9998 54.2005C49.7998 50.7005 68.4998 54.0006 72.1998 56.8005C73.6998 58.0006 73.9998 70.5005 73.7998 84.8005Z" fill="#7C6053"/>
<path d="M38.7999 29.3006C38.7999 29.3006 31.0999 19.7006 34.2999 15.9006C37.4999 12.1006 42.6 15.9006 42.6 15.9006C42.6 15.9006 42.8999 11.4006 47.8999 11.9006C52.8999 12.4006 55.8999 17.7006 55.8999 17.7006C55.8999 17.7006 60.2999 13.3006 63.2999 17.7006C66.2999 22.1006 64.2 29.3006 64.2 29.3006C64.2 29.3006 67.6999 28.8006 66.7999 32.9006C65.8999 37.0006 60.3999 41.2006 60.3999 41.2006L38.7999 29.3006Z" fill="black"/>
<path d="M55.7998 44.4004L55.8998 55.2004C55.8998 55.2004 53.9998 58.3004 47.6998 58.9004C42.9998 59.3004 41.2998 58.3004 41.2998 58.3004L41.8998 52.8004L42.4998 47.5004L53.8998 44.8004L55.7998 44.4004Z" fill="#FCA397"/>
<path d="M53.8999 44.9004C53.8999 45.2004 53.7999 45.5004 53.5999 45.9004C51.2999 51.3004 44.6999 52.6004 41.8999 52.9004L42.4999 47.5004L53.8999 44.9004Z" fill="black"/>
<path d="M39.8003 22.9007C39.8003 22.9007 34.3003 36.5007 36.6003 44.0007C38.9003 51.5007 45.8003 50.1007 49.9003 48.5007C54.0003 46.9007 55.8003 44.3007 55.8003 44.3007C55.8003 44.3007 59.7003 45.5007 62.2003 41.8007C64.7003 38.1007 63.0003 34.1007 60.7003 33.2007C58.5003 32.3007 55.9003 34.0007 55.9003 34.0007L57.8003 30.0007C57.8003 30.2007 48.6003 10.6007 39.8003 22.9007Z" fill="#FCA397"/>
<path d="M56.4001 40.1003C56.2001 40.1003 56.1001 40.0003 56.0001 39.9003C55.8001 39.7003 55.9001 39.4003 56.1001 39.2003L60.2001 36.2003C60.4001 36.0003 60.7001 36.1003 60.9001 36.3003C61.1001 36.5003 61.0001 36.8003 60.8001 37.0003L56.7001 40.0003C56.6001 40.0003 56.5001 40.1003 56.4001 40.1003Z" fill="black"/>
<path d="M60.8001 39.9006H60.7001L57.5001 39.1006C57.2001 39.0006 57.1001 38.8006 57.1001 38.5006C57.2001 38.2006 57.4001 38.1006 57.7001 38.1006L60.9001 38.9006C61.2001 39.0006 61.3001 39.2006 61.3001 39.5006C61.2001 39.8006 61.0001 39.9006 60.8001 39.9006Z" fill="black"/>
<path d="M48.5002 29.3004C48.3002 29.3004 48.1002 29.2004 48.0002 29.0004C47.3002 26.9004 45.4002 27.2004 45.3002 27.2004C45.0002 27.2004 44.8002 27.1004 44.7002 26.8004C44.7002 26.5004 44.8002 26.3004 45.1002 26.2004C46.0002 26.0004 48.1002 26.3004 48.9002 28.6004C49.0002 28.9004 48.9002 29.1004 48.6002 29.2004C48.6002 29.3004 48.6002 29.3004 48.5002 29.3004Z" fill="black"/>
<path d="M38.3997 28.2007C38.2997 28.2007 38.0997 28.1007 37.9997 28.0007C37.7997 27.8007 37.7997 27.5007 38.0997 27.3007C38.5997 26.9007 39.8997 25.8007 40.3997 26.5007C40.5997 26.7007 40.5997 27.0007 40.3997 27.2007C40.2997 27.3007 40.0997 27.4007 39.8997 27.3007C39.7997 27.3007 39.4997 27.5007 38.6997 28.1007C38.5997 28.2007 38.4997 28.2007 38.3997 28.2007Z" fill="black"/>
<path d="M40.3999 38.5003C40.1999 38.5003 40.0999 38.4003 39.9999 38.3003C38.1999 36.0003 41.5999 32.4003 41.7999 32.2003C41.9999 32.0003 42.2999 32.0003 42.4999 32.2003C42.6999 32.4003 42.6999 32.7003 42.4999 32.9003C41.6999 33.8003 39.7999 36.3003 40.7999 37.7003C40.9999 37.9003 40.9 38.2003 40.7 38.4003C40.6 38.4003 40.4999 38.5003 40.3999 38.5003Z" fill="black"/>
<path d="M39.5 33.7003C39.4 33.7003 39.4 33.7003 39.5 33.7003C39.2 33.7003 39 33.4003 39 33.1003L39.4 30.6003C39.4 30.3003 39.7 30.1003 40 30.2003C40.3 30.2003 40.5 30.5003 40.4 30.8003L40 33.3003C39.9 33.5003 39.7 33.7003 39.5 33.7003Z" fill="black"/>
<path d="M46.8999 33.7006C46.5999 33.7006 46.3999 33.4006 46.3999 33.2006L46.5999 30.6006C46.5999 30.3006 46.7999 30.1006 47.0999 30.1006C47.3999 30.1006 47.5999 30.4006 47.5999 30.6006L47.3999 33.2006C47.3999 33.5006 47.1999 33.7006 46.8999 33.7006Z" fill="black"/>
<path d="M38.7001 26.0004C38.7001 26.0004 39.8001 23.8004 42.5001 23.8004C45.2001 23.7004 46.8001 25.6004 46.8001 25.6004C46.8001 25.6004 45.7001 30.2004 49.4001 32.5004C53.1001 34.9004 55.9001 34.1004 55.9001 34.1004L58.5001 33.1004L60.4001 29.2004L52.6001 21.0004L42.6001 15.9004L37.6001 20.6004L38.7001 26.0004Z" fill="black"/>
<path d="M43.3001 42.8003C43.2001 42.8003 43.1001 42.8003 43.1001 42.8003C42.8001 42.8003 42.6001 42.5003 42.6001 42.3003C42.6001 42.0003 42.9001 41.8003 43.1001 41.8003C43.2001 41.8003 45.3001 41.9003 46.1001 40.0003C46.2001 39.7003 46.5001 39.6003 46.8001 39.8003C47.1001 39.9003 47.2001 40.2003 47.0001 40.5003C46.1001 42.6003 44.0001 42.8003 43.3001 42.8003Z" fill="black"/>
<path d="M86.4999 71.6003C83.1999 76.8003 78.7999 81.3003 73.6999 84.9003C70.9999 86.8003 68.0999 88.4003 64.8999 89.7003L72.0999 56.8003C72.6999 57.1003 80.2999 62.5003 86.4999 71.6003Z" fill="#7C6053"/>
<path d="M46.1 59.5005C42.7 59.5005 40 58.7005 39.9 58.7005C39.6 58.6005 39.5 58.3005 39.6 58.1005C39.7 57.8005 40 57.7005 40.2 57.8005C40.2 57.8005 43.7 58.8005 47.7 58.5005C52.3 58.2005 56.7 54.9005 56.7 54.9005C56.9 54.7005 57.2 54.8005 57.4 55.0005C57.6 55.2005 57.5 55.5005 57.3 55.7005C57.1 55.8005 52.7 59.2005 47.8 59.5005C47.2 59.5005 46.7 59.5005 46.1 59.5005Z" fill="#FFBF69"/>
</svg>
