<svg width="94" height="94" viewBox="0 0 94 94" fill="none" xmlns="http://www.w3.org/2000/svg">
<path d="M47.3998 93.2005C73.1363 93.2005 93.9998 72.337 93.9998 46.6005C93.9998 20.864 73.1363 0.000488281 47.3998 0.000488281C21.6634 0.000488281 0.799805 20.864 0.799805 46.6005C0.799805 72.337 21.6634 93.2005 47.3998 93.2005Z" fill="#EDDDD6"/>
<path d="M24.8 87.3004C19.3 84.3004 14.4 80.1004 10.5 75.1004C15 68.6004 26.5 59.3004 32.8 57.2004C40.9 54.5004 29.1 73.0004 24.8 87.3004Z" fill="#7772D3"/>
<path d="M58.1002 27.6003C60.5002 27.3003 62.9002 27.8003 64.8002 29.2003C66.5002 30.4003 68.1002 32.4003 68.7002 35.8003C70.1002 43.8003 67.2002 46.1003 71.8002 49.1003C76.4002 52.1003 79.0002 50.3003 81.9002 57.8003C84.8002 65.3003 80.3002 75.3003 71.0002 73.3003C61.7002 71.3003 39.2002 65.1003 39.2002 65.1003L38.2002 31.8003L49.5002 28.8003L58.1002 27.6003Z" fill="#E56445"/>
<path d="M72.7999 85.6006C67.9999 88.7006 62.6999 91.0006 56.8999 92.2006C53.7999 92.8006 50.5999 93.2006 47.2999 93.2006C45.8999 93.2006 44.4999 93.1006 43.0999 93.0006C40.8999 92.8006 38.6999 92.4006 36.4999 91.9006C32.2999 90.9006 28.3999 89.4006 24.6999 87.3006C20.6999 85.1006 17.0999 82.3006 13.8999 79.1006C15.2999 75.3006 16.6999 71.9006 18.1999 69.5006C25.1999 57.8006 35.2999 56.7006 35.2999 56.7006C46.1999 53.5006 55.3999 52.9006 65.2999 57.7006C69.7999 60.0006 71.9999 72.4006 72.7999 85.6006Z" fill="#7772D3"/>
<path d="M67.8999 83.5007L67.5999 88.6007C64.1999 90.2007 60.5999 91.5007 56.8999 92.3007C53.7999 92.9007 50.5999 93.3007 47.2999 93.3007C45.8999 93.3007 44.4999 93.2007 43.0999 93.1007C40.8999 92.9007 38.6999 92.5007 36.4999 92.0007C32.2999 91.0007 28.3999 89.5007 24.6999 87.4007C24.4999 87.3007 24.2999 87.2007 24.0999 87.1007C21.8999 85.9007 19.7999 84.4007 17.8999 82.9007C24.0999 69.9007 32.7999 57.4007 32.7999 57.4007L45.9999 54.7007L62.6999 57.6007L67.8999 83.5007Z" fill="#46467F"/>
<path d="M32.9002 57.2007C32.9002 57.2007 27.7002 74.2007 24.2002 87.0007C21.9002 85.7007 19.7002 84.2007 17.7002 82.5007L28.8002 60.4007L32.9002 57.2007Z" fill="#7772D3"/>
<path d="M28.8 34.3006C28.8 34.3006 24.3 27.0006 24.7 23.9006C25.6 16.2006 36.4 10.9006 47.2 14.5006C58 18.1006 60.2 31.5006 58.5 37.4006C54.2 52.4006 41 47.2006 41 47.2006C41 47.2006 20.6 43.4006 28.8 34.3006Z" fill="#E56445"/>
<path d="M32.3999 50.4004V50.7004L32.9999 56.0004L33.4999 60.1004C33.4999 60.1004 33.1999 61.1004 37.9999 60.4004C44.3999 59.5004 46.2999 56.6004 46.2999 56.6004L45.8999 46.9004L43.9999 47.4004L32.3999 50.4004Z" fill="#FCA397"/>
<path d="M32.3999 50.7004L32.9999 56.0004C36.0999 55.4004 41.6999 53.6004 43.6999 48.5004C43.7999 48.1004 43.8999 47.7004 43.9999 47.4004L32.3999 50.7004Z" fill="black"/>
<path d="M28.6 25.6007C28.6 25.6007 23.6 39.8007 26.3 47.3007C29 54.9007 35.9 53.2007 40 51.4007C44.1 49.6007 45.9 46.9007 45.9 46.9007C45.9 46.9007 49.9 48.0007 52.3 44.1007C54.7 40.3007 52.8 36.2007 50.4 35.4007C48.1 34.6007 45.5 36.4007 45.5 36.4007L47.3 32.3007C47.4 32.2007 37.1 12.5007 28.6 25.6007Z" fill="#FCA397"/>
<path d="M30.3997 43.0005C30.1997 43.0005 29.9997 42.9005 29.8997 42.7005C28.7997 39.8005 30.5997 36.6005 30.6997 36.5005C30.7997 36.3005 31.0997 36.2005 31.3997 36.3005C31.5997 36.4005 31.6996 36.7005 31.5996 37.0005C31.5996 37.0005 29.8997 39.9005 30.8997 42.3005C30.9997 42.6005 30.8996 42.8005 30.5996 42.9005C30.4996 43.0005 30.4997 43.0005 30.3997 43.0005Z" fill="black"/>
<path d="M46.5999 42.8005C46.4999 42.8005 46.3999 42.8004 46.2999 42.7004C46.0999 42.5004 46.1 42.2005 46.2 42.0005L49.5999 37.8005C49.7999 37.6005 50.0999 37.6004 50.2999 37.7004C50.4999 37.9004 50.5 38.2005 50.4 38.4005L47 42.6005C46.9 42.7005 46.6999 42.8005 46.5999 42.8005Z" fill="black"/>
<path d="M50.4999 41.4007L47.8999 41.2007C47.5999 41.2007 47.3999 40.9007 47.3999 40.7007C47.3999 40.4007 47.6999 40.2007 47.8999 40.2007L50.4999 40.4007C50.7999 40.4007 50.9999 40.7007 50.9999 40.9007C50.8999 41.2007 50.6999 41.4007 50.4999 41.4007Z" fill="black"/>
<path d="M34.9002 46.9007C33.6002 46.9007 32.4002 45.9007 32.4002 45.9007C32.3002 45.8007 32.2002 45.6007 32.2002 45.4007C32.2002 45.2007 32.3002 45.1007 32.5002 45.0007L37.7002 42.8007C37.9002 42.7007 38.1002 42.8007 38.2002 42.9007C38.3002 43.0007 38.4002 43.2007 38.4002 43.4007C38.4002 43.5007 37.9002 45.5007 36.2002 46.5007C35.8002 46.8007 35.3002 46.9007 34.9002 46.9007ZM33.8002 45.6007C34.3002 45.9007 35.1002 46.1007 35.8002 45.7007C36.4002 45.3007 36.8002 44.7007 37.1002 44.3007L33.8002 45.6007Z" fill="black"/>
<path d="M38.2001 32.3007C38.0001 32.3007 37.9 32.2007 37.8 32.1007C37.1 31.0007 35.5001 31.4007 35.4001 31.4007C35.1001 31.5007 34.9 31.3007 34.8 31.1007C34.7 30.8007 34.9 30.6007 35.1 30.5007C35.2 30.5007 37.5 29.8007 38.6 31.6007C38.7 31.8007 38.7001 32.1007 38.4001 32.3007C38.4001 32.3007 38.3001 32.3007 38.2001 32.3007Z" fill="black"/>
<path d="M27.5999 31.6007C27.4999 31.6007 27.2999 31.6007 27.2999 31.5007C27.0999 31.3007 27.0999 31.0007 27.2999 30.8007C27.2999 30.8007 28.3999 29.7007 29.5999 29.7007C30.1999 29.7007 30.6999 30.0007 31.1999 30.6007C31.3999 30.8007 31.2999 31.1007 31.0999 31.3007C30.8999 31.5007 30.5999 31.4007 30.3999 31.2007C30.0999 30.9007 29.8999 30.7007 29.5999 30.7007C28.7999 30.7007 27.9999 31.5007 27.9999 31.5007C27.7999 31.5007 27.6999 31.6007 27.5999 31.6007Z" fill="black"/>
<path d="M28.6 37.4004C28.3 37.4004 28.1 37.1004 28.1 36.9004L28.3 34.5004L27.4 33.5004C27.2 33.3004 27.2 33.0004 27.4 32.8004C27.6 32.6004 27.9 32.6004 28.1 32.8004L29.2 33.9004C29.3 34.0004 29.3 34.1004 29.3 34.3004L29.1 36.9004C29.1 37.2004 28.9 37.4004 28.6 37.4004Z" fill="black"/>
<path d="M37.2002 37.4005C36.9002 37.4005 36.7002 37.2005 36.7002 36.9005L36.8001 34.6005L35.5001 33.5005C35.3001 33.3005 35.3002 33.0005 35.4002 32.8005C35.6002 32.6005 35.9001 32.6004 36.1001 32.7004L37.6001 34.0005C37.7001 34.1005 37.8001 34.3005 37.8001 34.4005L37.7002 37.0005C37.7002 37.2005 37.5002 37.4005 37.2002 37.4005Z" fill="black"/>
<path d="M52.5002 23.0004C52.5002 23.0004 50.6002 6.60038 61.9002 8.10038C73.9002 9.70038 63.1002 29.0004 55.4002 28.2004C52.0002 27.8004 52.5002 23.0004 52.5002 23.0004Z" fill="#E56445"/>
<path d="M33.1 61.3005C32.7 61.3005 32.5 61.3005 32.5 61.3005C32.2 61.3005 32 61.1005 32 60.8005C32 60.5005 32.2 60.3005 32.5 60.3005C32.6 60.3005 39.5 60.6005 45.1 57.3005C45.3 57.2005 45.6 57.2005 45.8 57.5005C45.9 57.7005 45.9 58.0005 45.6 58.2005C40.7 61.0005 35 61.3005 33.1 61.3005Z" fill="#F7734F"/>
<path d="M80.3002 79.6005C71.9002 88.0005 60.2002 93.2005 47.4002 93.2005C46.0002 93.2005 44.6002 93.1005 43.2002 93.0005C44.1002 88.2005 45.0002 84.9005 45.0002 84.9005L56.8002 55.0005C56.8002 55.0005 68.6002 55.3005 76.4002 67.3005C78.1002 69.9005 79.5002 74.3005 80.3002 79.6005Z" fill="#7772D3"/>
<path d="M57.0001 92.2005C53.9001 92.8005 50.7001 93.2005 47.4001 93.2005C46.0001 93.2005 44.6001 93.1005 43.2001 93.0005C41.0001 92.8005 38.8001 92.4005 36.6001 91.9005C40.8001 74.2005 46.3001 54.5005 46.3001 54.5005L56.8001 55.0005L57.0001 92.2005Z" fill="#7772D3"/>
<path d="M58.1 28.1007C57.8 28.1007 57.6 27.9007 57.6 27.6007C56.9 20.5007 52.1 17.9007 52.1 17.9007C51.9 17.8007 51.8001 17.5007 51.9001 17.2007C52.0001 17.0007 52.3 16.9007 52.6 17.0007C52.8 17.1007 57.9001 19.8007 58.7001 27.5007C58.6001 27.8007 58.4 28.1007 58.1 28.1007Z" fill="white"/>
<path d="M35.6 19.7007C35.6 19.7007 33.9 21.9007 33.7 25.4007C33.5 28.9007 33.5 28.9007 33.5 28.9007L48.2 33.2007L48.5 26.1007L35.6 19.7007Z" fill="#E56445"/>
<path d="M34.4001 22.1003C34.4001 22.1003 33.1001 23.2003 32.5001 24.7003C31.9001 26.2003 31.3001 29.2003 31.3001 29.2003L27.1001 28.7003L27.6001 21.3003L33.3001 17.8003L36.8001 18.2003L36.3001 23.0003L34.4001 22.1003Z" fill="#E56445"/>
</svg>
