<svg width="94" height="94" viewBox="0 0 94 94" fill="none" xmlns="http://www.w3.org/2000/svg">
<path d="M93.5999 46.6005C93.5999 52.9005 92.3999 58.8005 90.0999 64.3005C84.6999 77.5005 73.3999 87.7005 59.4999 91.5005C58.5999 91.8005 57.5999 92.0005 56.5999 92.2005C53.4999 92.9005 50.2999 93.2005 46.9999 93.2005C45.2999 93.2005 43.6999 93.1005 42.0999 92.9005C41.0999 92.8005 39.9999 92.6005 38.9999 92.5005C37.5999 92.3005 36.2999 92.0005 34.9999 91.6005C33.1999 91.1005 31.4999 90.5005 29.7999 89.9005C25.8999 88.3005 22.1999 86.3005 18.8999 83.8005C13.5999 79.8005 9.19991 74.7005 6.09991 68.9005C2.49991 62.3005 0.399902 54.7005 0.399902 46.6005C0.399902 20.8005 21.2999 0.000488281 46.9999 0.000488281C72.6999 0.000488281 93.5999 20.8005 93.5999 46.6005Z" fill="#EDDDD6"/>
<path d="M59.5999 91.5003C55.5999 92.6003 51.3999 93.2003 47.0999 93.2003C44.3999 93.2003 41.6999 93.0003 39.0999 92.5003C37.6999 92.3003 36.3999 92.0003 35.0999 91.6003C33.2999 91.1003 31.5999 90.5003 29.8999 89.9003L33.1999 56.6003L51.2999 52.3003L58.4999 54.4003L59.5999 91.5003Z" fill="#F7734F"/>
<path d="M35.7999 22.8003C35.7999 22.8003 28.9999 14.4003 30.7999 13.2003C32.6999 12.1003 34.3999 13.8003 34.3999 13.8003C34.3999 13.8003 48.3999 11.6003 53.4999 13.0003C58.5999 14.4003 61.9999 22.8003 61.9999 22.8003C61.9999 22.8003 64.5999 22.6003 65.5999 26.0003C66.6999 29.5003 59.1999 46.6003 54.3999 45.7003C49.5999 44.9003 35.7999 22.8003 35.7999 22.8003Z" fill="black"/>
<path d="M54.2998 43.0005L54.4998 54.7005C54.4998 54.7005 52.4998 58.1005 45.6998 58.8005C40.5998 59.3005 38.7998 58.2005 38.7998 58.2005L39.3998 52.3005L39.9998 46.5005L52.2998 43.5005L54.2998 43.0005Z" fill="#FCA397"/>
<path d="M52.3 43.5005C52.3 43.8005 52.2 44.2005 52 44.6005C49.5 50.5005 42.4 51.9005 39.5 52.2005L40.1 46.4005L52.3 43.5005Z" fill="black"/>
<path d="M36.8998 20.0005C36.8998 20.0005 31.0998 34.7005 33.6998 42.8005C36.2998 50.9005 43.6998 49.3005 47.9998 47.6005C52.3998 45.9005 54.3998 43.1005 54.3998 43.1005C54.3998 43.1005 58.5998 44.4005 61.1998 40.4005C63.7998 36.4005 61.9998 32.1005 59.5998 31.1005C57.1998 30.2005 54.3998 32.0005 54.3998 32.0005L56.4998 27.7005C56.3998 27.7005 46.3998 6.60049 36.8998 20.0005Z" fill="#FCA397"/>
<path d="M36.8999 20.0006C36.8999 20.0006 41.3999 18.2006 43.3999 19.8006C45.2999 21.4006 47.5999 34.9006 54.3999 32.0006C61.1999 29.1006 57.6999 20.4006 57.6999 20.4006C57.6999 20.4006 40.4999 5.80056 36.8999 20.0006Z" fill="black"/>
<path d="M39.4001 52.3003C39.4001 52.3003 37.3001 72.0003 35.0001 91.7003C22.5001 88.4003 12.1001 80.0003 6.1001 69.0003C9.8001 65.1003 15.7001 58.6003 20.8001 56.6003C29.7001 52.8003 39.4001 52.3003 39.4001 52.3003Z" fill="#507849"/>
<path d="M44.2998 59.4006C41.2998 59.4006 38.8998 58.7006 38.6998 58.7006C38.3998 58.6006 38.2998 58.3007 38.3998 58.1007C38.4998 57.8007 38.7998 57.7007 38.9998 57.8007C39.0998 57.8007 48.9998 60.6007 54.1998 54.5007C54.3998 54.3007 54.6998 54.3006 54.8998 54.4006C55.0998 54.6006 55.0998 54.9007 54.9998 55.1007C51.8998 58.5007 47.6998 59.4006 44.2998 59.4006Z" fill="white"/>
<path d="M90.2 64.3007C84.8 77.5007 73.5 87.7007 59.6 91.5007C58.7 91.8007 57.7 92.0007 56.7 92.2007C55.3 76.8007 54.5 49.8007 54.5 49.8007C54.5 49.8007 74.7 48.8007 90.2 64.3007Z" fill="#507849"/>
<path d="M54.9002 38.5005C54.8002 38.5005 54.6002 38.5005 54.6002 38.4005C54.4002 38.2005 54.4002 37.9005 54.6002 37.7005L58.3002 33.9005C58.5002 33.7005 58.8002 33.7005 59.0002 33.9005C59.2002 34.1005 59.2002 34.4005 59.0002 34.6005L55.3002 38.4005C55.2002 38.4005 55.0002 38.5005 54.9002 38.5005Z" fill="black"/>
<path d="M59.9002 37.5007H59.8002L56.6002 36.7007C56.3002 36.6007 56.2002 36.4007 56.2002 36.1007C56.3002 35.8007 56.5002 35.7007 56.8002 35.7007L60.0002 36.5007C60.3002 36.6007 60.4002 36.8007 60.4002 37.1007C60.3002 37.4007 60.1002 37.5007 59.9002 37.5007Z" fill="black"/>
<path d="M35.9001 26.6005C35.8001 26.6005 35.7001 26.6005 35.6001 26.5005C35.4001 26.3005 35.3001 26.0005 35.5001 25.8005C35.5001 25.7005 36.5001 24.5005 38.9001 24.8005C39.2001 24.8005 39.4001 25.1004 39.3001 25.4004C39.3001 25.7004 39.0001 25.9005 38.7001 25.8005C36.9001 25.5005 36.3001 26.3004 36.2001 26.4004C36.2001 26.5004 36.1001 26.6005 35.9001 26.6005Z" fill="black"/>
<path d="M46.8999 26.7004C46.7999 26.7004 46.6999 26.7004 46.5999 26.6004C45.2999 25.5004 43.7999 25.9004 43.7999 25.9004C43.4999 26.0004 43.2999 25.8004 43.1999 25.6004C43.0999 25.3004 43.2999 25.1004 43.4999 25.0004C43.5999 25.0004 45.4999 24.5004 47.1999 25.9004C47.3999 26.1004 47.3999 26.4004 47.2999 26.6004C47.1999 26.7004 46.9999 26.7004 46.8999 26.7004Z" fill="black"/>
<path d="M36.3999 32.4007C36.0999 32.4007 35.8999 32.1007 35.8999 31.9007L36.0999 29.2007C36.0999 28.9007 36.3999 28.7007 36.5999 28.7007C36.8999 28.7007 37.0999 29.0007 37.0999 29.2007L36.8999 31.9007C36.8999 32.2007 36.6999 32.4007 36.3999 32.4007Z" fill="black"/>
<path d="M44.3999 32.7005C44.0999 32.7005 43.8999 32.4005 43.8999 32.2005L44.0999 29.5005C44.0999 29.2005 44.3999 29.0005 44.5999 29.0005C44.8999 29.0005 45.0999 29.3005 45.0999 29.5005L44.8999 32.2005C44.8999 32.5005 44.6999 32.7005 44.3999 32.7005Z" fill="black"/>
<path d="M38.3 38.9002C38.1 38.9002 37.9 38.8003 37.8 38.6003C36.1 34.8003 38.6 31.7003 38.8 31.6003C39 31.4003 39.3 31.4003 39.5 31.5003C39.7 31.7003 39.7 32.0003 39.6 32.2003C39.5 32.3003 37.4 34.9003 38.8 38.2003C38.9 38.5003 38.8 38.7002 38.5 38.9002C38.5 38.9002 38.4 38.9002 38.3 38.9002Z" fill="black"/>
<path d="M41.5 41.3004C41.2 41.3004 41 41.1004 41 40.8004C41 40.5004 41.2 40.3004 41.5 40.3004C41.6 40.3004 43.3 40.3004 43.9 38.8004C44 38.5004 44.3 38.4004 44.6 38.5004C44.9 38.6004 45 38.9004 44.9 39.2004C44 41.3004 41.6 41.3004 41.5 41.3004Z" fill="black"/>
</svg>
