<svg width="94" height="95" viewBox="0 0 94 95" fill="none" xmlns="http://www.w3.org/2000/svg">
<path d="M93.4998 47.6004C93.4998 56.5004 90.9998 64.8004 86.6998 71.9004C78.4998 85.3004 63.6998 94.2004 46.8998 94.2004C32.7998 94.2004 20.2998 88.0004 11.6998 78.1004C4.5998 69.9004 0.299805 59.2004 0.299805 47.5004C0.299805 21.7004 21.1998 0.900391 46.8998 0.900391C72.5998 0.900391 93.4998 21.8004 93.4998 47.6004Z" fill="#EDDDD6"/>
<path d="M51.5 34.7003C51.5 34.7003 59 31.1003 59.8 37.0003C60.8 43.8003 52.6 44.2003 52.6 44.2003L51.5 34.7003Z" fill="#F27E64"/>
<path d="M55.4998 40.8005C55.3998 40.8005 55.2998 40.8005 55.2998 40.7005C55.0998 40.6005 54.9998 40.3005 55.0998 40.0005L57.4998 35.5005C57.5998 35.3005 57.8998 35.2005 58.1998 35.3005C58.3998 35.4005 58.4998 35.7005 58.3998 36.0005L55.9998 40.5005C55.8998 40.7005 55.6998 40.8005 55.4998 40.8005Z" fill="black"/>
<path d="M56.2002 39.4004C55.9002 39.4004 55.7002 39.2004 55.7002 38.9004C55.7002 38.6004 55.9002 38.4004 56.2002 38.4004H58.4002C58.7002 38.4004 58.9002 38.6004 58.9002 38.9004C58.9002 39.2004 58.7002 39.4004 58.4002 39.4004H56.2002Z" fill="black"/>
<path d="M86.6002 71.9003C83.6002 76.7003 79.8002 81.0003 75.4002 84.4003C75.1002 84.6003 74.8002 84.9004 74.5002 85.1004C66.7002 90.9004 57.2002 94.3004 46.8002 94.3004C40.6002 94.3004 34.6002 93.1003 29.2002 90.9003C28.9002 90.8003 28.6002 90.6004 28.3002 90.5004C21.9002 87.7004 16.2002 83.5004 11.7002 78.3004C13.6002 72.5004 17.1002 67.0004 23.3002 63.5004C39.2002 54.6004 63.0002 54.6004 73.5002 59.6004C80.0002 62.5004 84.3002 68.0003 86.6002 71.9003Z" fill="#7772D3"/>
<path d="M54.6 27.9005C54.6 27.9005 59.6 19.9005 58.6 16.5005C57.6 13.1005 53.1 16.4005 53.1 16.4005C53.1 16.4005 52.1 9.00051 46.6 10.5005C39.3 12.4005 32 25.3005 32 25.3005C32 25.3005 28.3 24.4005 27 27.6005C25.5 31.4005 26.8 35.7005 29.2 39.4005C31.5 43.2005 37.9 40.1005 37.9 40.1005L54.6 27.9005Z" fill="black"/>
<path d="M39.1001 51.1006L39.4001 59.9006C39.4001 59.9006 42.6001 61.6006 46.6001 61.5006C52.0001 61.4006 53.7001 59.0006 53.7001 59.0006L53.2001 47.6006L39.1001 51.1006Z" fill="#F27E64"/>
<path d="M39.1001 50.9005C39.1001 50.9005 42.5001 57.5005 48.6001 56.3005C53.5001 55.4005 53.3001 48.5005 53.3001 48.5005L39.1001 50.9005Z" fill="black"/>
<path d="M54.6001 27.9004C54.6001 27.9004 57.3001 43.2004 54.6001 49.1004C51.5001 55.8004 43.7001 54.9004 40.9001 52.9004C37.1001 50.2004 35.5001 45.9004 35.5001 45.9004C35.5001 45.9004 30.5001 47.1004 28.7001 43.1004C26.8001 38.8004 29.8001 35.2004 32.3001 34.9004C34.8001 34.6004 35.1001 35.0004 35.1001 35.0004L34.2001 30.4004C34.1001 30.5004 48.8001 12.9004 54.6001 27.9004Z" fill="#F27E64"/>
<path d="M34.9998 35.1003C34.9998 35.1003 38.2998 35.2003 41.9998 32.3003C46.2998 28.9003 45.5998 23.2003 45.5998 23.2003C45.5998 23.2003 53.4998 27.7003 55.3998 33.7003C57.3998 39.7003 57.2998 19.4003 48.5998 20.2003C39.9998 20.8003 28.2998 26.5003 34.9998 35.1003Z" fill="black"/>
<path d="M34.4001 41.8003C34.3001 41.8003 34.2001 41.8003 34.1001 41.7003L30.1001 38.5003C29.9001 38.3003 29.8001 38.0003 30.0001 37.8003C30.2001 37.6003 30.5001 37.5003 30.7001 37.7003L34.7001 40.9003C34.9001 41.1003 35.0001 41.4003 34.8001 41.6003C34.7001 41.7003 34.6001 41.8003 34.4001 41.8003Z" fill="black"/>
<path d="M30.9001 42.6005C30.8001 42.6005 30.6001 42.5005 30.5001 42.4005C30.3001 42.2005 30.4001 41.9005 30.6001 41.7005L32.8001 39.9005C33.0001 39.7005 33.3001 39.8005 33.5001 40.0005C33.7001 40.2005 33.6001 40.5005 33.4001 40.7005L31.2001 42.5005C31.1001 42.5005 31.0001 42.6005 30.9001 42.6005Z" fill="black"/>
<path d="M42.8001 37.3003C42.5001 37.3003 42.3001 37.1003 42.3001 36.8003L42.1001 34.3003C42.1001 34.0003 42.3001 33.8003 42.5001 33.8003C42.8001 33.8003 43.0001 34.0003 43.0001 34.2003L43.2001 36.7003C43.3001 37.1003 43.1001 37.3003 42.8001 37.3003Z" fill="black"/>
<path d="M52.4002 37.0005C52.1002 37.0005 51.9002 36.8005 51.9002 36.5005L51.7002 34.0005C51.7002 33.7005 51.9002 33.5005 52.1002 33.5005C52.4002 33.5005 52.6002 33.7005 52.6002 33.9005L52.8002 36.4005C52.9002 36.7005 52.7002 36.9005 52.4002 37.0005Z" fill="black"/>
<path d="M48.9001 43.1006C48.8001 43.1006 48.8001 43.1006 48.9001 43.1006C48.5001 43.1006 48.4001 42.8006 48.4001 42.5006C49.0001 38.9006 47.7001 35.9006 47.7001 35.9006C47.6001 35.6006 47.7001 35.4006 48.0001 35.2006C48.3001 35.1006 48.5001 35.2006 48.7001 35.5006C48.8001 35.6006 50.1001 38.8006 49.5001 42.7006C49.3001 42.9006 49.1001 43.1006 48.9001 43.1006Z" fill="black"/>
<path d="M53.2001 31.8005C53.1001 31.8005 53.0001 31.8005 52.9001 31.7005C52.2001 31.2005 51.0001 31.1005 50.6001 31.1005C50.3001 31.1005 50.1001 30.9005 50.1001 30.6005C50.1001 30.3005 50.3001 30.1005 50.6001 30.1005C50.7001 30.1005 52.5001 30.0005 53.6001 30.9005C53.8001 31.1005 53.8001 31.4005 53.7001 31.6005C53.5001 31.8005 53.4001 31.8005 53.2001 31.8005Z" fill="black"/>
<path d="M42.0002 32.2004C41.9002 32.2004 41.7002 32.1004 41.6002 32.0004C41.4002 31.8004 41.5002 31.5004 41.7002 31.3004C42.8002 30.4004 44.6002 30.5004 44.7002 30.5004C45.0002 30.5004 45.2002 30.8004 45.2002 31.0004C45.2002 31.3004 45.0002 31.5004 44.7002 31.5004C44.7002 31.5004 43.2002 31.4004 42.4002 32.0004C42.2002 32.2004 42.1002 32.2004 42.0002 32.2004Z" fill="black"/>
<path d="M33.8998 35.1006C33.8998 35.1006 35.6998 39.6006 36.1998 39.4006C36.7998 39.2006 35.4998 32.1006 33.7998 31.9006C32.0998 31.6006 33.8998 35.1006 33.8998 35.1006Z" fill="black"/>
<path d="M46.6998 62.0003C42.0998 62.0003 37.6998 60.0003 37.6998 59.9003C37.4998 59.8003 37.2998 59.5003 37.4998 59.2003C37.5998 59.0003 37.8998 58.8003 38.1998 59.0003C38.2998 59.1003 50.6998 64.8003 55.2998 56.3003C55.3998 56.1003 55.6998 56.0003 55.9998 56.1003C56.1998 56.2003 56.2998 56.5003 56.1998 56.8003C53.8998 60.8003 50.1998 62.0003 46.6998 62.0003Z" fill="#FFBF69"/>
<path d="M46.9999 46.9006C45.4999 46.9006 44.6999 46.0006 44.4999 45.4006C44.3999 45.1006 44.4999 44.9006 44.7999 44.7006C45.0999 44.6006 45.2999 44.7006 45.3999 45.0006C45.4999 45.1006 45.9999 46.3006 47.8999 45.7006C48.1999 45.6006 48.3999 45.8006 48.4999 46.0006C48.5999 46.3006 48.3999 46.5006 48.1999 46.6006C47.7999 46.9006 47.3999 46.9006 46.9999 46.9006Z" fill="black"/>
<path d="M30.3999 84.8007L29.2999 90.7007C28.9999 90.6007 28.6999 90.4007 28.3999 90.3007L29.4999 84.6007C29.5999 84.3007 29.7999 84.2007 30.0999 84.2007C30.2999 84.3007 30.3999 84.6007 30.3999 84.8007Z" fill="#FFBF69"/>
</svg>
