<svg width="94" height="94" viewBox="0 0 94 94" fill="none" xmlns="http://www.w3.org/2000/svg">
<path d="M93.4002 47.0003C93.4002 54.1003 91.8002 60.8003 89.0002 66.8003C81.6002 82.7003 65.5002 93.6003 46.8002 93.6003C30.8002 93.6003 16.6002 85.5003 8.2002 73.2003C3.1002 65.7003 0.200195 56.7003 0.200195 47.0003C0.200195 21.2003 21.1002 0.40026 46.8002 0.40026C72.5002 0.30026 93.4002 21.2003 93.4002 47.0003Z" fill="#EDDDD6"/>
<path d="M14.5002 73.7006C14.5002 73.7006 6.90017 71.4006 9.20017 60.3006C11.2002 50.7006 23.8001 49.2006 23.8001 49.2006C23.8001 49.2006 19.8001 43.3006 22.9001 36.1006C25.8001 29.2006 29.9001 27.9006 29.9001 27.9006C29.9001 27.9006 29.6002 22.3006 34.0002 17.9006C38.4002 13.5006 44.4001 18.1006 44.4001 18.1006C44.4001 18.1006 55.8001 15.6006 62.8001 21.7006C69.8001 27.8006 67.1002 38.2006 67.1002 38.2006C67.1002 38.2006 78.3002 42.2006 81.0002 54.1006C83.7002 65.9006 76.7002 72.3006 76.7002 72.3006L14.5002 73.7006Z" fill="black"/>
<path d="M89.0002 66.8007C81.6002 82.7007 65.5002 93.6007 46.8002 93.6007C30.8002 93.6007 16.6002 85.5007 8.2002 73.2007C16.3002 62.4007 26.4002 54.6007 38.8002 53.5007C58.0002 51.8007 70.1002 55.5007 82.8002 62.3007C84.7002 63.3007 86.8002 64.9007 89.0002 66.8007Z" fill="#7772D3"/>
<path d="M52.8999 47.3004L53.3999 55.1004C53.3999 55.1004 50.5999 57.8004 46.8999 58.0004C41.7999 58.4004 39.7999 55.7004 39.7999 55.7004L39.3999 45.4004L52.8999 47.3004Z" fill="#F27E64"/>
<path d="M52.8999 47.2007C52.8999 47.2007 50.7999 54.8007 44.4999 53.2007C39.8999 52.1007 39.3999 46.2007 39.3999 46.2007L52.8999 47.2007Z" fill="black"/>
<path d="M36.0002 25.9005C36.0002 25.9005 34.1002 40.0005 39.0002 46.4005C43.9002 52.8005 49.7002 50.5005 52.2002 48.4005C55.6002 45.5005 56.1002 41.6005 56.1002 41.6005C56.1002 41.6005 61.0002 42.3005 62.5002 38.2005C64.0002 33.9005 60.7002 30.7005 58.3002 30.6005C55.9002 30.5005 55.6002 31.0005 55.6002 31.0005L56.1002 26.5005C56.0002 26.6005 40.2002 10.8005 36.0002 25.9005Z" fill="#F27E64"/>
<path d="M38.7002 32.3007C38.7002 32.3007 31.1002 29.5007 30.8002 35.3007C30.5002 42.0007 38.5002 41.6007 38.5002 41.6007L38.7002 32.3007Z" fill="#F27E64"/>
<path d="M56.6997 31.5003C56.6997 31.5003 54.1997 32.7003 48.4997 29.0003C42.7997 25.3003 44.0997 20.5003 44.0997 20.5003C44.0997 20.5003 36.8997 25.6003 35.4997 31.5003C34.0997 37.4003 32.2997 17.9003 40.7997 17.8003C49.3997 17.7003 62.3997 22.6003 56.6997 31.5003Z" fill="black"/>
<path d="M35.2998 38.6007C35.0998 38.6007 34.9998 38.5007 34.8998 38.4007L32.1998 34.3007C31.9998 34.1007 32.0998 33.8007 32.2998 33.6007C32.4998 33.4007 32.7998 33.5007 32.9998 33.7007L35.6998 37.8007C35.8998 38.0007 35.7998 38.3007 35.5998 38.5007C35.4998 38.6007 35.3998 38.6007 35.2998 38.6007Z" fill="black"/>
<path d="M56.5998 37.6004C56.4998 37.6004 56.2998 37.5004 56.1998 37.4004C55.9998 37.2004 55.9998 36.9004 56.1998 36.7004L59.7998 33.3004C59.9998 33.1004 60.2998 33.1004 60.4998 33.3004C60.6998 33.5004 60.6998 33.8004 60.4998 34.0004L56.8998 37.4004C56.8998 37.5004 56.7998 37.6004 56.5998 37.6004Z" fill="black"/>
<path d="M60.2001 38.0006C60.1001 38.0006 60.0001 38.0006 59.9001 37.9006L57.6001 36.3006C57.4001 36.1006 57.3001 35.8006 57.5001 35.6006C57.7001 35.4006 58.0001 35.3006 58.2001 35.5006L60.5001 37.1006C60.7001 37.3006 60.8001 37.6006 60.6001 37.8006C60.5001 37.9006 60.3001 38.0006 60.2001 38.0006Z" fill="black"/>
<path d="M32.2998 37.5003C31.9998 37.5003 31.7998 37.3003 31.7998 37.0003C31.7998 36.7003 31.9998 36.5003 32.2998 36.5003L34.3998 36.3003C34.6998 36.3003 34.8998 36.5003 34.8998 36.8003C34.8998 37.1003 34.6998 37.3003 34.3998 37.3003L32.2998 37.5003C32.3998 37.5003 32.3998 37.5003 32.2998 37.5003Z" fill="black"/>
<path d="M44.0001 40.4006C43.8001 40.4006 43.6001 40.2006 43.5001 40.0006C42.7001 36.2006 43.8 33.1006 43.8 33.0006C43.9 32.7006 44.2 32.6006 44.4 32.7006C44.7 32.8006 44.8001 33.1006 44.7001 33.3006C44.7001 33.3006 43.6 36.3006 44.4 39.8006C44.5 40.1006 44.3001 40.3006 44.0001 40.4006C44.1001 40.4006 44.1001 40.4006 44.0001 40.4006Z" fill="black"/>
<path d="M45.8998 44.2004C44.3998 44.2004 42.9998 43.0004 42.9998 43.0004C42.8998 42.9004 42.7998 42.7004 42.8998 42.5004C42.9998 42.3004 43.0998 42.2004 43.2998 42.1004L48.0998 41.4004C48.2998 41.4004 48.4998 41.4004 48.5998 41.6004C48.6998 41.7004 48.6998 41.9004 48.6998 42.1004C48.4998 42.3004 47.5998 44.2004 45.8998 44.2004ZM44.7998 43.0004C45.0998 43.2004 45.5998 43.3004 45.9998 43.3004C46.4998 43.3004 46.7998 43.0004 47.0998 42.7004L44.7998 43.0004Z" fill="black"/>
<path d="M39.0998 29.2003C38.9998 29.2003 38.7998 29.1003 38.6998 29.0003C38.4998 28.8003 38.4998 28.5003 38.6998 28.3003C39.6998 27.4003 41.4998 27.3003 41.5998 27.3003C41.8998 27.3003 42.0998 27.5003 42.0998 27.8003C42.0998 28.1003 41.8998 28.3003 41.5998 28.3003C41.5998 28.3003 40.1998 28.3003 39.3998 29.0003C39.2998 29.1003 39.1998 29.2003 39.0998 29.2003Z" fill="black"/>
<path d="M50 29.6007C49.9 29.6007 49.7 29.6007 49.7 29.5007C49 28.8007 47.5 28.7007 47.5 28.7007C47.2 28.7007 47 28.5007 47 28.2007C47 27.9007 47.2 27.7007 47.5 27.7007C47.6 27.7007 49.3 27.8007 50.3 28.8007C50.5 29.0007 50.5 29.3007 50.3 29.5007C50.3 29.6007 50.1 29.6007 50 29.6007Z" fill="black"/>
<path d="M46.1997 58.8005C39.7997 58.8005 38.4996 55.1005 38.3996 54.9005C38.2996 54.6005 38.4997 54.4005 38.6997 54.3005C38.9997 54.2005 39.1996 54.4005 39.2996 54.6005C39.2996 54.7005 40.4997 57.8005 46.0997 57.8005C46.0997 57.8005 46.0997 57.8005 46.1997 57.8005C51.1997 57.8005 53.0997 55.1005 53.0997 55.0005C53.2997 54.8005 53.5996 54.7005 53.7996 54.9005C53.9996 55.1005 54.0996 55.4005 53.8996 55.6005C53.8996 55.7005 51.7997 58.8005 46.1997 58.8005Z" fill="#46467F"/>
<path d="M35.6003 31.5006C35.6003 31.5006 28.9003 23.0006 33.9003 17.8006C38.9003 12.6006 53.4003 10.0006 60.2003 19.8006C65.0003 26.8006 56.7003 31.4006 56.7003 31.4006L47.4003 21.9006L44.1003 20.5006L38.6003 21.9006L35.6003 31.5006Z" fill="black"/>
<path d="M49.6 34.4006C49.3 34.4006 49.1 34.2006 49.1 33.9006L49.2 31.8006L47.8999 30.8006C47.6999 30.6006 47.5999 30.3006 47.7999 30.1006C47.9999 29.9006 48.2999 29.8006 48.4999 30.0006L49.9999 31.1006C50.0999 31.2006 50.2 31.4006 50.2 31.5006L50.1 33.9006C50.1 34.2006 49.9 34.4006 49.6 34.4006Z" fill="black"/>
<path d="M40.8001 34.4006C40.5001 34.4006 40.3001 34.2006 40.3001 33.9006L40.4001 31.8006L39.1001 30.8006C38.9001 30.6006 38.8001 30.3006 39.0001 30.1006C39.2001 29.9006 39.5001 29.8006 39.7001 30.0006L41.2001 31.1006C41.3001 31.2006 41.4001 31.4006 41.4001 31.5006L41.3001 33.9006C41.3001 34.2006 41.1001 34.4006 40.8001 34.4006Z" fill="black"/>
</svg>
