<svg width="94" height="94" viewBox="0 0 94 94" fill="none" xmlns="http://www.w3.org/2000/svg">
<path d="M93.5001 46.6006C93.5001 55.1006 91.2001 63.1006 87.2001 70.0006C87.1001 70.3006 86.9001 70.5006 86.7001 70.8006C86.3001 71.4006 85.9001 72.0006 85.5001 72.6006C85.3001 72.9006 85.2001 73.1006 85.0001 73.4006C78.9001 82.1006 69.9001 88.6006 59.4001 91.6006C59.2001 91.7006 59.0001 91.7006 58.7001 91.8006C54.9001 92.8006 50.9001 93.3006 46.8001 93.3006C30.7001 93.3006 16.5001 85.1006 8.1001 72.7006C7.3001 71.5006 6.60009 70.4006 5.90009 69.1006C2.20009 62.4006 0.100098 54.8006 0.100098 46.7006C0.100098 20.9006 21.0001 0.100586 46.7001 0.100586C72.4001 0.100586 93.5001 20.8006 93.5001 46.6006Z" fill="#EDDDD6"/>
<path d="M26.9 40.2002C26.9 40.2002 21.9 13.7003 41.3 8.80025C60.7 3.90025 61.9 31.5003 61.9 31.5003C61.9 31.5003 83 35.5003 83.1 56.0003C83.3 81.6003 58.5 77.3003 58.5 77.3003L35 67.7002C35 67.8002 11.4 55.0002 26.9 40.2002Z" fill="black"/>
<path d="M85.0001 73.3006C78.9001 82.0006 69.9001 88.5006 59.4001 91.5006C59.2001 91.6006 59.0001 91.6006 58.7001 91.7006C54.9001 92.7006 50.9001 93.2006 46.8001 93.2006C30.7001 93.2006 16.5001 85.0006 8.1001 72.6006C14.4001 64.0006 22.2001 57.6006 27.5001 55.3006C35.4001 51.9006 47.9001 49.6006 59.5001 52.9006H59.6001C63.1001 53.9006 66.5001 55.4006 69.6001 57.5006C76.6001 62.1006 81.5001 67.4006 85.0001 73.3006Z" fill="#F7734F"/>
<path d="M37.7002 44.8007V45.1007L37.9002 50.4007L38.1002 54.6007C38.1002 54.6007 37.7002 55.6007 42.6002 55.3007C49.1002 54.9007 51.2002 52.0007 51.2002 52.0007L51.5002 42.2007L49.5002 42.6007L37.7002 44.8007Z" fill="#FCA397"/>
<path d="M37.7002 45.1005L37.9002 50.4005C41.1002 50.0005 46.9002 48.6005 49.2002 43.6005C49.4002 43.2005 49.5002 42.8005 49.5002 42.5005L37.7002 45.1005Z" fill="black"/>
<path d="M35.6002 19.5005C35.6002 19.5005 29.5002 33.4005 31.7002 41.2005C33.9002 49.0005 41.0002 47.8005 45.3002 46.3005C49.6002 44.8005 51.5002 42.2005 51.5002 42.2005C51.5002 42.2005 55.5002 43.5005 58.1002 39.8005C60.8002 36.1005 59.1002 31.9005 56.9002 30.9005C54.6002 29.9005 51.9002 31.6005 51.9002 31.6005L54.0002 27.6005C54.1002 27.6005 45.2002 7.00048 35.6002 19.5005Z" fill="#FCA397"/>
<path d="M37.4999 17.5003C37.4999 17.5003 37.0999 24.9003 44.4999 28.3003C51.8999 31.7003 56.8999 31.0003 56.8999 31.0003L56.3999 21.4003L47.0999 11.3003L38.7999 14.0003L37.4999 17.5003Z" fill="black"/>
<path d="M51.3999 29.5005L51.4999 33.7005L55.1999 30.0005L51.3999 29.5005Z" fill="black"/>
<path d="M86.7002 70.7004C86.3002 71.3004 85.9002 71.9004 85.5002 72.5004C85.3002 72.8004 85.2002 73.0004 85.0002 73.3004C78.9002 82.0004 69.9002 88.5004 59.4002 91.5004C59.2002 91.6004 59.0002 91.6004 58.7002 91.7004L59.3002 52.9004C59.3002 52.9004 59.4002 52.9004 59.5002 52.9004H59.6002C61.9002 53.3004 77.0002 56.3004 85.1002 68.1004C85.7002 68.9004 86.2002 69.8004 86.7002 70.7004Z" fill="#F7734F"/>
<path d="M41.2 55.9006C38.3 55.9006 36.1 55.4006 35.9 55.3006C35.6 55.2006 35.5 55.0006 35.5 54.7006C35.6 54.4006 35.8 54.3006 36.1 54.3006C36.2 54.3006 45 56.4006 51.1 52.0006C51.3 51.8006 51.6 51.9006 51.8 52.1006C52 52.3006 51.9 52.6006 51.7 52.8006C48.4 55.3006 44.4 55.9006 41.2 55.9006Z" fill="#7772D3"/>
<path d="M33.8996 24.6004C33.6996 24.6004 33.4996 24.5004 33.3996 24.2004C33.2996 23.9004 33.4996 23.7004 33.6996 23.6004L36.4997 22.7004C36.7997 22.6004 36.9997 22.8004 37.0997 23.0004C37.1997 23.3004 36.9997 23.5004 36.7997 23.6004L33.9997 24.5004C33.9997 24.6004 33.8996 24.6004 33.8996 24.6004Z" fill="black"/>
<path d="M52.1999 38.1004C52.0999 38.1004 51.8999 38.0004 51.7999 37.9004C51.5999 37.7004 51.5999 37.4004 51.7999 37.2004L56.0999 33.3004C56.2999 33.1004 56.5999 33.1004 56.7999 33.3004C56.9999 33.5004 56.9999 33.8004 56.7999 34.0004L52.4999 37.9004C52.4999 38.0004 52.3999 38.1004 52.1999 38.1004Z" fill="black"/>
<path d="M56.5999 37.6004C56.4999 37.6004 56.4999 37.6004 56.3999 37.6004L53.7999 36.5004C53.4999 36.4004 53.3999 36.1004 53.4999 35.8004C53.5999 35.5004 53.8999 35.4004 54.1999 35.5004L56.7999 36.6004C57.0999 36.7004 57.1999 37.0004 57.0999 37.3004C56.9999 37.5004 56.7999 37.6004 56.5999 37.6004Z" fill="black"/>
<path d="M34.6998 31.6007H34.5998C34.2998 31.5007 34.1998 31.3007 34.1998 31.0007L34.6998 28.5007L33.6998 27.3007C33.4998 27.1007 33.4998 26.8007 33.6998 26.6007C33.8998 26.4007 34.1998 26.4007 34.3998 26.6007L35.5998 27.9007C35.6998 28.0007 35.6998 28.2007 35.6998 28.3007L35.0998 31.0007C35.1998 31.5007 34.9998 31.6007 34.6998 31.6007Z" fill="black"/>
<path d="M43.1002 32.1007H43.0002C42.7002 32.0007 42.6002 31.8007 42.6002 31.5007L43.1002 29.0007L42.1002 27.8007C41.9002 27.6007 41.9002 27.3007 42.1002 27.1007C42.3002 26.9007 42.6002 26.9007 42.8002 27.1007L44.0002 28.4007C44.1002 28.5007 44.1002 28.7007 44.1002 28.8007L43.5002 31.5007C43.6002 31.9007 43.4002 32.1007 43.1002 32.1007Z" fill="black"/>
<path d="M36.3999 37.7006C36.1999 37.7006 35.9999 37.5006 35.8999 37.3006C34.9999 32.9006 37.0999 30.6006 37.1999 30.5006C37.3999 30.3006 37.6999 30.3006 37.8999 30.5006C38.0999 30.7006 38.0999 31.0006 37.8999 31.2006C37.7999 31.3006 35.9999 33.2006 36.8999 37.1006C36.9999 37.4006 36.8 37.6006 36.5 37.7006H36.3999Z" fill="black"/>
<path d="M40.9002 42.0004C40.6002 42.0004 39.9002 41.9004 38.4002 40.2004C38.2002 40.0004 38.2002 39.8004 38.2002 39.5004C38.3002 39.2004 38.5002 39.1004 38.7002 39.0004C42.3002 37.9004 42.8002 38.3004 43.0002 38.5004C43.2002 38.6004 43.4002 39.0004 43.2002 39.6004C43.0002 40.5004 41.9002 41.9004 40.9002 42.0004C41.0002 42.0004 41.0002 42.0004 40.9002 42.0004ZM39.5002 39.9004C40.3002 40.7004 40.9002 41.0004 41.0002 41.0004C41.1002 41.0004 41.4002 40.8004 41.8002 40.3004C42.2002 39.9004 42.3002 39.5004 42.4002 39.3004C42.1002 39.3004 41.2002 39.4004 39.5002 39.9004Z" fill="black"/>
<path d="M24.3 70.5004C24.2 70.6004 19.5 75.7004 20.4 84.9004C20.1 84.7004 19.8 84.5004 19.6 84.3004C19.5 84.2004 19.5 84.2004 19.4 84.1004C18.8 75.0004 23.6 69.8004 23.7 69.8004C23.9 69.6004 24.2 69.6004 24.4 69.8004C24.5 70.0004 24.5 70.3004 24.3 70.5004Z" fill="#7772D3"/>
</svg>
