<svg width="94" height="95" viewBox="0 0 94 95" fill="none" xmlns="http://www.w3.org/2000/svg">
<path d="M93.8 47.6004C93.8 56.0004 91.6 63.8004 87.7 70.6004C85 75.4004 81.4 79.6004 77.3 83.2004C72.9 87.0004 67.7 89.9004 62.1 91.8004C57.4 93.4004 52.4 94.2004 47.2 94.2004C33.4 94.2004 21 88.2004 12.4 78.6004C11.9 78.0004 11.4 77.5004 10.9 76.9004C9.49999 75.2004 8.30001 73.4004 7.10001 71.5004C2.90001 64.5004 0.5 56.3004 0.5 47.5004C0.5 21.7004 21.4 0.900391 47.1 0.900391C72.9 1.00039 93.8 21.8004 93.8 47.6004Z" fill="#EDDDD6"/>
<path d="M34.9 37.6006C34.9 37.6006 24.1 45.8006 23.3 55.7006C22.1 70.7006 39.2 64.2006 41.1 54.6006C43 45.0006 34.9 37.6006 34.9 37.6006Z" fill="black"/>
<path d="M77.2999 83.2007C72.8999 87.0007 67.6999 89.9007 62.0999 91.8007C57.3999 93.4007 52.3999 94.2007 47.1999 94.2007C33.3999 94.2007 20.9999 88.2007 12.3999 78.6007C11.8999 78.0007 11.3999 77.5007 10.8999 76.9007L40.3999 55.5007L41.4999 54.7007L53.0999 55.6007L57.8999 56.0007L77.2999 83.2007Z" fill="#FCB35B"/>
<path d="M33.8998 36.6003C33.8998 36.6003 29.9998 32.3003 31.0998 25.6003C31.8998 21.1003 33.8998 19.6003 33.8998 19.6003C33.8998 19.6003 30.7998 13.4003 39.9998 13.8003C49.1998 14.2003 54.5998 18.7003 54.5998 18.7003C54.5998 18.7003 58.7998 16.6003 60.6998 21.5003C62.5998 26.4003 60.6998 33.6003 60.6998 33.6003L33.8998 36.6003Z" fill="black"/>
<path d="M41.6001 55.5005L12.4001 78.7005C11.9001 78.1005 11.4001 77.6005 10.9001 77.0005C9.50009 75.3005 8.3001 73.5005 7.1001 71.6005C8.0001 70.8005 8.90009 70.0005 9.90009 69.2005C23.3001 58.1005 36.5001 56.0005 40.4001 55.6005C41.2001 55.5005 41.6001 55.5005 41.6001 55.5005Z" fill="#FCB35B"/>
<path d="M53.9998 44.2007L53.7998 56.2007C53.7998 56.2007 51.6998 59.6007 45.1998 59.9007C40.2998 60.2007 38.7998 57.4007 38.7998 57.4007L40.1998 47.0007L52.0998 44.6007L53.9998 44.2007Z" fill="#F27E64"/>
<path d="M87.7001 70.6005C85.0001 75.4005 81.4001 79.6005 77.3001 83.2005C72.9001 87.0005 67.7001 89.9005 62.1001 91.8005L69.6001 82.6005L53.2001 55.7005L53.1001 55.5005C53.1001 55.5005 55.0001 55.6005 58.0001 56.1005C64.9001 57.2005 77.8001 60.6005 87.7001 70.6005Z" fill="#FCB35B"/>
<path d="M53.9998 43.5005C53.9998 43.8005 53.7998 44.2005 53.5998 44.6005C50.9998 50.1005 42.0998 52.2005 39.2998 52.4005L40.0998 46.9005L53.9998 43.5005Z" fill="black"/>
<path d="M38.2998 21.3005C38.2998 21.3005 32.0998 35.2005 34.1998 43.0005C36.2998 50.9005 43.4998 49.7005 47.6998 48.2005C51.9998 46.7005 53.9998 44.1005 53.9998 44.1005C53.9998 44.1005 57.9998 45.5005 60.6998 41.8005C63.3998 38.1005 61.7998 33.8005 59.4998 32.8005C57.1998 31.8005 54.4998 33.4005 54.4998 33.4005L56.6998 29.4005C56.6998 29.5005 47.9998 8.90053 38.2998 21.3005Z" fill="#F27E64"/>
<path d="M54.5 33.6006C54.5 33.6006 48.5 34.8006 44.3 28.1006C40.1 21.4006 40.5 18.7005 40.5 18.7005L36.4 25.6006C36.4 25.6006 35.5 20.8005 37.4 17.8005C39.3 14.8005 41.3 15.4005 41.3 15.4005L54.5 18.7005L58 29.3005L54.5 33.6006Z" fill="black"/>
<path d="M38.7998 39.1005C38.5998 39.1005 38.3998 39.0005 38.2998 38.7005C37.3998 35.7005 39.4999 32.6005 39.5999 32.5005C39.7999 32.3005 40.0998 32.2005 40.2998 32.4005C40.4998 32.6005 40.5999 32.9005 40.3999 33.1005C40.3999 33.1005 38.4999 35.9005 39.1999 38.4005C39.2999 38.7005 39.0999 38.9005 38.8999 39.0005C38.8999 39.1005 38.7998 39.1005 38.7998 39.1005Z" fill="black"/>
<path d="M55.0999 40.1004C54.9999 40.1004 54.8999 40.1004 54.7999 40.0004C54.5999 39.8004 54.5999 39.5004 54.7999 39.3004L58.5999 35.3004C58.7999 35.1004 59.0999 35.1004 59.2999 35.3004C59.4999 35.5004 59.4999 35.8004 59.2999 36.0004L55.4999 40.0004C55.3999 40.1004 55.1999 40.1004 55.0999 40.1004Z" fill="black"/>
<path d="M59.1001 39.1003L56.4001 38.7003C56.1001 38.7003 55.9001 38.4003 56.0001 38.1003C56.0001 37.8003 56.3001 37.6003 56.6001 37.7003L59.2001 38.1003C59.5001 38.1003 59.7001 38.4003 59.6001 38.7003C59.6001 38.9003 59.4001 39.1003 59.1001 39.1003Z" fill="black"/>
<path d="M43.8001 43.1004C42.5001 43.1004 41.0001 42.2004 40.8001 42.1004C40.6001 42.0004 40.6001 41.8004 40.6001 41.7004C40.6001 41.5004 40.7001 41.4004 40.9001 41.3004L45.1001 39.1004C45.2001 39.0004 45.4001 39.0004 45.5001 39.1004C45.6001 39.2004 45.7001 39.3004 45.8001 39.4004C45.8001 39.5004 46.5001 41.8004 45.1001 42.8004C44.6001 43.0004 44.2001 43.1004 43.8001 43.1004ZM42.1001 41.6004C42.9001 42.0004 43.9001 42.2004 44.4001 41.9004C44.9001 41.5004 44.9001 40.7004 44.9001 40.2004L42.1001 41.6004Z" fill="black"/>
<path d="M36.1001 27.7003C35.9001 27.7003 35.7001 27.5003 35.6001 27.3003C35.6001 27.0003 35.7001 26.8003 36.0001 26.7003L38.5001 26.3003C38.8001 26.3003 39.0001 26.4003 39.1001 26.7003C39.1001 27.0003 39.0001 27.2003 38.7001 27.3003L36.1001 27.7003Z" fill="black"/>
<path d="M46.4001 29.3004C46.3001 29.3004 46.2001 29.3004 46.2001 29.2004L42.1001 27.1004C41.9001 27.0004 41.8001 26.7004 41.9001 26.4004C42.0001 26.2004 42.3001 26.1004 42.6001 26.2004L46.7001 28.3004C46.9001 28.4004 47.0001 28.7004 46.9001 29.0004C46.7001 29.2004 46.5001 29.3004 46.4001 29.3004Z" fill="black"/>
<path d="M62.1002 37.6006C62.1002 37.6006 70.7002 45.1006 69.5002 57.3006C68.3002 69.5006 56.2002 67.9006 53.6002 63.5006C49.7002 56.7006 54.0002 44.1006 54.0002 44.1006C54.0002 44.1006 61.4002 45.4006 62.1002 37.6006Z" fill="black"/>
<path d="M36.1001 33.4007H36.0001C35.7001 33.3007 35.6001 33.0007 35.7001 32.8007L36.4001 30.5007L35.8001 29.8007C35.6001 29.6007 35.7001 29.3007 35.9001 29.1007C36.1001 28.9007 36.4001 29.0007 36.6001 29.2007L37.4001 30.1007C37.5001 30.2007 37.5001 30.4007 37.5001 30.6007L36.7001 33.1007C36.5001 33.2007 36.3001 33.4007 36.1001 33.4007Z" fill="black"/>
<path d="M43.5997 34.1007H43.4997C43.1997 34.0007 43.0997 33.7007 43.1997 33.5007L43.8997 31.2007L42.9997 30.2007C42.7997 30.0007 42.7997 29.7007 43.0997 29.5007C43.2997 29.3007 43.5997 29.3007 43.7997 29.6007L44.8997 30.8007C44.9997 30.9007 44.9997 31.1007 44.9997 31.3007L44.1997 33.8007C44.0997 33.9007 43.8997 34.1007 43.5997 34.1007Z" fill="black"/>
<path d="M45.2 60.3003C40.9 60.3003 38.4 58.0003 38.4 57.9003C38.2 57.7003 38.2 57.4003 38.4 57.2003C38.6 57.0003 38.9 57.0003 39.1 57.2003C39.3 57.4003 44.1 61.7003 51.8 57.4003C52 57.3003 52.3 57.4003 52.5 57.6003C52.6 57.8003 52.5 58.1003 52.3 58.3003C49.6 59.8003 47.2 60.3003 45.2 60.3003Z" fill="white"/>
</svg>
