<svg width="95" height="94" viewBox="0 0 95 94" fill="none" xmlns="http://www.w3.org/2000/svg">
<path d="M94.1998 47.0004C94.1998 58.2004 90.2998 68.5005 83.6998 76.5005C82.4998 78.0005 81.1998 79.4005 79.7998 80.7005C77.0998 83.3005 73.9998 85.6005 70.6998 87.5005C63.8998 91.4005 55.9998 93.6005 47.4998 93.6005C44.6998 93.6005 41.9998 93.3004 39.2998 92.9004C37.1998 92.5004 35.0998 92.0004 33.0998 91.4004C26.8998 89.4004 21.2998 86.2004 16.5998 82.0005C6.89981 73.5005 0.799805 61.0005 0.799805 47.1005C0.799805 21.3005 21.6998 0.500447 47.3998 0.500447C73.2998 0.300447 94.1998 21.2004 94.1998 47.0004Z" fill="#EDDDD6"/>
<path d="M40.5001 22.0004C40.5001 22.0004 31.5001 15.9004 20.9001 21.8004C10.3001 27.7004 13.6001 38.6004 13.6001 38.6004C13.6001 38.6004 5.30006 49.0004 9.20007 59.4004C13.1001 69.8004 30.4001 72.7004 38.1001 61.0004C45.8001 49.3004 33.6001 38.9004 33.6001 38.9004C33.6001 38.9004 43.4001 38.9004 40.5001 22.0004Z" fill="#E56445"/>
<path d="M83.7002 76.5007C82.5002 78.0007 81.2002 79.4007 79.8002 80.7007C77.1002 83.3007 74.0002 85.6007 70.7002 87.5007C70.8002 73.9007 76.1002 64.7007 76.1002 64.7007C76.5002 65.3007 79.3002 70.3007 83.7002 76.5007Z" fill="#FCA397"/>
<path d="M65.1998 31.2003C65.1998 31.2003 68.9998 19.3003 68.4998 16.3003C67.9998 13.3003 55.3998 9.4003 45.3998 14.1003C35.3998 18.8003 34.6998 31.9003 36.9998 37.3003C42.7998 51.3003 54.8998 44.9003 54.8998 44.9003C54.8998 44.9003 73.9998 39.1003 65.1998 31.2003Z" fill="#E56445"/>
<path d="M79.8001 80.6007C77.1001 83.2007 74.0001 85.5007 70.7001 87.4007C63.9001 91.3007 56.0001 93.5007 47.5001 93.5007C44.7001 93.5007 42.0001 93.2007 39.3001 92.8007C37.2001 92.4007 35.1001 91.9007 33.1001 91.3007C33.6001 81.4007 34.3001 71.2007 35.1001 64.3007C35.6001 59.9007 36.2001 56.9007 36.9001 56.2007C37.5001 55.6007 38.7001 55.0007 40.4001 54.5007C43.0001 53.7007 46.6001 53.2007 50.6001 53.2007C54.7001 53.2007 59.2001 53.6007 63.4001 54.9007C67.2001 56.0007 70.7001 57.8007 73.4001 60.4007C74.4001 61.4007 75.4001 62.8007 76.1001 64.7007C77.9001 68.6007 79.1001 74.3007 79.8001 80.6007Z" fill="#507849"/>
<path d="M63.4001 46.7006V47.0006V52.5006V56.9006C63.4001 56.9006 63.8001 57.9006 59.0001 57.8006C52.5001 57.6006 50.3001 54.8006 50.3001 54.8006L49.6001 44.6006L51.6001 44.9006L63.4001 46.7006Z" fill="#FCA397"/>
<path d="M63.3999 47.3004V52.4004C60.2999 52.2004 54.7999 51.1004 52.2999 46.4004C52.0999 46.0004 51.9999 45.7004 51.8999 45.4004L63.3999 47.3004Z" fill="black"/>
<path d="M64.4 22.8003C64.4 22.8003 70.8 35.9003 69 43.4003C67.2 51.0003 60.4 50.1003 56.2 48.8003C52.1 47.5003 50.1 45.1003 50.1 45.1003C50.1 45.1003 46.3 46.5003 43.7 43.1003C41.1 39.7003 42.4 35.5003 44.5 34.5003C46.6 33.5003 49.3 34.9003 49.3 34.9003L47.1 31.1003C47.1 31.2003 54.8 11.2003 64.4 22.8003Z" fill="#FCA397"/>
<path d="M64.4998 39.8006H64.3998C64.0998 39.7006 63.9998 39.5006 63.9998 39.2006C64.6998 36.8006 62.7998 34.2006 62.6998 34.2006C62.4998 34.0006 62.5998 33.7006 62.7998 33.5006C62.9998 33.3006 63.2998 33.4006 63.4998 33.6006C63.5998 33.7006 65.6998 36.6006 64.8998 39.5006C64.8998 39.6006 64.6998 39.8006 64.4998 39.8006Z" fill="black"/>
<path d="M48.8998 41.3004C48.7998 41.3004 48.5998 41.3004 48.4998 41.2004L44.6998 37.5004C44.4998 37.3004 44.4998 37.0004 44.6998 36.8004C44.8998 36.6004 45.1998 36.6004 45.3998 36.8004L49.1998 40.5004C49.3998 40.7004 49.3998 41.0004 49.1998 41.2004C49.0998 41.2004 48.9998 41.3004 48.8998 41.3004Z" fill="black"/>
<path d="M44.9996 40.4004C44.7996 40.4004 44.5996 40.2004 44.4996 40.0004C44.3996 39.7004 44.5996 39.5004 44.8996 39.4004L47.3996 38.9004C47.6996 38.9004 47.8996 39.0004 47.9996 39.3004C48.0996 39.6004 47.8997 39.8004 47.5997 39.9004L44.9996 40.4004Z" fill="black"/>
<path d="M60.3002 44.0003C60.0002 44.0003 59.6002 43.9003 59.2002 43.8003C57.4002 43.0003 56.8002 41.1003 56.8002 41.0003C56.7002 40.8003 56.8002 40.6003 56.9002 40.5003C57.0002 40.4003 57.2002 40.3003 57.4002 40.4003L62.7002 41.9003C62.9002 41.9003 63.0002 42.1003 63.0002 42.2003C63.0002 42.4003 63.0002 42.5003 62.9002 42.7003C62.9002 42.8003 61.8002 44.0003 60.3002 44.0003ZM58.3002 41.7003C58.6002 42.1003 59.1002 42.6003 59.7002 42.9003C60.4002 43.2003 61.1002 42.9003 61.5002 42.6003L58.3002 41.7003Z" fill="black"/>
<path d="M55.8 30.3004C55.7 30.3004 55.7 30.3004 55.6 30.3004C55.3 30.2004 55.1999 29.9005 55.3999 29.6005C56.2999 27.8005 58.5999 28.2005 58.6999 28.2005C58.9999 28.2005 59.2 28.5004 59.1 28.8004C59.1 29.1004 58.8 29.3005 58.5 29.2005C58.4 29.2005 56.9 28.9005 56.3 30.1005C56.2 30.2005 56 30.3004 55.8 30.3004Z" fill="black"/>
<path d="M62.9001 28.6004C62.8001 28.6004 62.7001 28.6004 62.6001 28.5004C62.4001 28.4004 62.3001 28.0004 62.4001 27.8004C62.8001 27.2004 63.3001 26.9004 63.8001 26.8004C65.0001 26.6004 66.1001 27.5004 66.2001 27.6004C66.4001 27.8004 66.4001 28.1004 66.3001 28.3004C66.1001 28.5004 65.8001 28.5004 65.6001 28.4004C65.4001 28.2004 64.6001 27.7004 64.0001 27.8004C63.7001 27.8004 63.5001 28.0004 63.3001 28.4004C63.3001 28.5004 63.1001 28.6004 62.9001 28.6004Z" fill="black"/>
<path d="M65.6001 34.2007C65.4001 34.2007 65.2001 34.0007 65.1001 33.8007L64.6001 31.3007C64.6001 31.2007 64.6001 31.0007 64.7001 30.9007L65.6001 29.7007C65.8001 29.5007 66.1001 29.4007 66.3001 29.6007C66.5001 29.8007 66.6001 30.1007 66.4001 30.3007L65.6001 31.3007L66.0001 33.5007C66.2001 33.8007 66.0001 34.1007 65.6001 34.2007Z" fill="black"/>
<path d="M57.1998 35.0004C56.9998 35.0004 56.6998 34.8004 56.6998 34.6004L56.2998 32.1004C56.2998 31.9004 56.2998 31.8004 56.3998 31.7004L57.6998 30.3004C57.8998 30.1004 58.1998 30.1004 58.3998 30.3004C58.5998 30.5004 58.5998 30.8004 58.3998 31.0004L57.1998 32.2004L57.5998 34.4004C57.7998 34.7004 57.5998 35.0004 57.1998 35.0004C57.2998 35.0004 57.2998 35.0004 57.1998 35.0004Z" fill="black"/>
<path d="M49.1999 35.0005C49.1999 35.0005 54.8999 31.8005 56.8999 27.6005C58.8999 23.3005 58.8999 21.2005 58.8999 21.2005C58.8999 21.2005 59.7999 23.9005 61.9999 24.5005C64.0999 25.1005 65.4999 25.1005 65.4999 25.1005L66.9999 29.0005L65.7999 19.7005C65.7999 19.7005 59.8999 16.8005 59.1999 16.9005C58.3999 16.9005 48.7999 19.0005 48.2999 19.6005C47.7999 20.2005 44.9999 27.8005 44.9999 27.8005L44.8999 31.2005L49.1999 35.0005Z" fill="#E56445"/>
<path d="M39.4002 92.9004C37.3002 92.5004 35.2002 92.0004 33.2002 91.4004C27.0002 89.4004 21.4002 86.2004 16.7002 82.0004C19.1002 77.0004 22.1002 72.5004 25.1002 68.7004C31.1002 61.1004 37.0002 56.4004 37.0002 56.4004L37.5002 58.9004C38.7002 64.4004 39.3002 70.1004 39.3002 75.8004C39.4002 81.4004 39.4002 86.8004 39.4002 92.9004Z" fill="#FCA397"/>
<path d="M58.7998 58.3006C52.9998 58.3006 49.2998 54.8006 49.1998 54.7006C48.9998 54.5006 48.9998 54.2006 49.1998 54.0006C49.3998 53.8006 49.6998 53.8006 49.8998 54.0006C50.0998 54.2006 55.7998 59.6006 64.1998 56.2006C64.4998 56.1006 64.6998 56.2006 64.8998 56.5006C64.9998 56.8006 64.8998 57.0006 64.5998 57.2006C62.4998 57.9006 60.5998 58.3006 58.7998 58.3006Z" fill="white"/>
</svg>
