<svg width="94" height="94" viewBox="0 0 94 94" fill="none" xmlns="http://www.w3.org/2000/svg">
<path d="M93.3 46.6005C93.3 50.7005 92.8 54.8005 91.7 58.6005C86.4 78.6005 68.2 93.2005 46.6 93.2005C32.1 93.2005 19.1 86.5005 10.5 76.1005C3.9 68.1005 0 57.8005 0 46.6005C0 20.8005 20.9 0.000488281 46.6 0.000488281C72.3 0.000488281 93.3 20.8005 93.3 46.6005Z" fill="#EDDDD6"/>
<path d="M91.7 58.5005C86.4 78.5005 68.2 93.1005 46.6 93.1005C32.1 93.1005 19.1 86.4005 10.5 76.0005C24.1 59.3005 38.9 57.5005 38.9 57.5005C38.9 57.5005 38.5 55.0005 38.9 54.3005C39.2 53.8005 40.1 53.4005 40.6 53.2005C40.8 53.1005 40.9 53.1005 40.9 53.1005C40.9 53.1005 41.6 53.0005 42.8 52.8005C45.1 52.4005 49.1 51.8005 52.3 51.6005C53.2 51.5005 54.1 51.5005 54.8 51.5005C55.6 51.5005 56.2 51.6005 56.5 51.7005C56.9 51.9005 57.3 53.1005 57.3 53.1005C57.3 53.1005 63.1 52.2005 71 53.1005C74.5 53.6005 82.8 55.1005 91.7 58.5005Z" fill="#7C6053"/>
<path d="M38.8 32.4007C38.8 32.4007 30.6 29.8007 30.6 35.9007C30.5 43.0007 39 42.3007 39 42.3007L38.8 32.4007Z" fill="#F27E64"/>
<path d="M35.3996 39.1006C35.1996 39.1006 35.0996 39.0006 34.9996 38.9006L31.9996 34.7006C31.7996 34.5006 31.8996 34.2006 32.0996 34.0006C32.2996 33.8006 32.5996 33.9006 32.7996 34.1006L35.7996 38.3006C35.9996 38.5006 35.8996 38.8006 35.6996 39.0006C35.5996 39.1006 35.4996 39.1006 35.3996 39.1006Z" fill="black"/>
<path d="M32.2998 38.0003C31.9998 38.0003 31.7998 37.8003 31.7998 37.6003C31.7998 37.3003 31.9998 37.1003 32.1998 37.0003L34.3998 36.8003C34.6998 36.8003 34.8998 37.0003 34.9998 37.2003C34.9998 37.5003 34.7998 37.7003 34.5998 37.8003L32.2998 38.0003Z" fill="black"/>
<path d="M54.4999 47.8003L55.2999 56.0003C55.2999 56.0003 52.2999 58.0003 48.2999 58.4003C42.8999 59.0003 40.7999 56.0003 40.7999 56.0003L39.8999 46.3003L54.4999 47.8003Z" fill="#F27E64"/>
<path d="M54.4999 47.8003C54.4999 47.8003 52.5999 54.7003 46.3999 54.4003C41.3999 54.1003 39.3999 47.3003 39.3999 47.3003L54.4999 47.8003Z" fill="black"/>
<path d="M35.6999 25.9004C35.6999 25.9004 33.6999 41.3004 38.5999 47.6004C43.8999 54.3004 51.1999 51.5004 53.6999 49.1004C57.1999 45.9004 57.5999 41.8004 57.5999 41.8004C57.5999 41.8004 62.8999 42.3004 64.1999 38.0004C65.5999 33.4004 61.9999 30.1004 59.3999 30.2004C56.7999 30.2004 56.4999 30.7004 56.4999 30.7004L56.7999 25.9004C56.8999 25.7004 39.4999 9.70041 35.6999 25.9004Z" fill="#F27E64"/>
<path d="M57.9998 37.3003C57.8998 37.3003 57.6998 37.3003 57.6998 37.2003C57.4998 37.0003 57.4998 36.7003 57.6998 36.5003L61.3998 32.7003C61.5998 32.5003 61.8998 32.5003 62.0998 32.7003C62.2998 32.9003 62.2998 33.2003 62.0998 33.4003L58.3998 37.2003C58.2998 37.3003 58.0998 37.3003 57.9998 37.3003Z" fill="black"/>
<path d="M61.8 37.6007C61.7 37.6007 61.6 37.6007 61.5 37.5007L59 35.9007C58.8 35.8007 58.7 35.4007 58.8 35.2007C58.9 35.0007 59.3 34.9007 59.5 35.0007L62 36.6007C62.2 36.7007 62.3 37.1007 62.2 37.3007C62.1 37.5007 61.9 37.6007 61.8 37.6007Z" fill="black"/>
<path d="M49.8002 33.9004C49.5002 33.9004 49.3002 33.7004 49.3002 33.4004L49.2002 30.9004C49.2002 30.6004 49.4002 30.4004 49.7002 30.4004C50.0002 30.4004 50.2002 30.6004 50.2002 30.9004L50.3002 33.4004C50.3002 33.6004 50.1002 33.9004 49.8002 33.9004Z" fill="black"/>
<path d="M40.1 34.3007C39.8 34.3007 39.6 34.1007 39.6 33.8007L39.5 31.2007C39.5 30.9007 39.7 30.7007 40 30.7007C40.3 30.7007 40.5 30.9007 40.5 31.2007L40.6 33.7007C40.6 34.0007 40.4 34.2007 40.1 34.3007Z" fill="black"/>
<path d="M45.1998 40.6003C44.9998 40.6003 44.7998 40.5003 44.6998 40.2003C43.4998 36.3003 44.4998 32.9003 44.5998 32.7003C44.6998 32.4003 44.9998 32.3003 45.1998 32.4003C45.4998 32.5003 45.5998 32.8003 45.4998 33.0003C45.4998 33.0003 44.5998 36.2003 45.5998 39.9003C45.6998 40.2003 45.4998 40.4003 45.2998 40.5003C45.2998 40.6003 45.1998 40.6003 45.1998 40.6003Z" fill="black"/>
<path d="M38.4002 29.1006C38.3002 29.1006 38.2002 29.1006 38.1002 29.0006C37.9002 28.8006 37.9002 28.5006 38.1002 28.3006C39.1002 27.2006 40.9002 27.1006 41.0002 27.1006C41.3002 27.1006 41.5002 27.3006 41.5002 27.6006C41.5002 27.9006 41.3002 28.1006 41.0002 28.1006C41.0002 28.1006 39.5002 28.2006 38.7002 29.0006C38.6002 29.0006 38.5002 29.1006 38.4002 29.1006Z" fill="black"/>
<path d="M50.9002 28.8004C50.8002 28.8004 50.7002 28.8004 50.6002 28.7004C49.7002 28.2004 48.2002 28.4004 48.2002 28.5004C47.9002 28.6004 47.7002 28.4004 47.6002 28.1004C47.5002 27.8004 47.7002 27.6004 48.0002 27.5004C48.1002 27.5004 49.9002 27.1004 51.2002 27.9004C51.4002 28.0004 51.5002 28.3004 51.4002 28.6004C51.2002 28.8004 51.1002 28.8004 50.9002 28.8004Z" fill="black"/>
<path d="M57.8 30.4006C57.8 30.4006 56.6 35.2006 56 35.1006C55.4 35.0006 55.7 27.5006 57.4 27.1006C59.1 26.7006 57.8 30.4006 57.8 30.4006Z" fill="black"/>
<path d="M45.8999 44.9005C45.5999 44.9005 45.3999 44.7005 45.3999 44.4005C45.3999 44.1005 45.5999 43.9005 45.8999 43.9005C45.9999 43.9005 48.3999 43.8005 49.3999 41.7005C49.4999 41.4005 49.7999 41.3005 50.0999 41.5005C50.3999 41.6005 50.4999 41.9005 50.2999 42.2005C49.0999 44.8005 46.0999 44.9005 45.8999 44.9005Z" fill="black"/>
<path d="M57.0003 29.8002C57.0003 29.8002 51.7003 29.6002 48.1003 27.0002C45.0003 24.8002 43.7003 21.6002 43.7003 21.6002C43.7003 21.6002 41.5003 21.5002 38.4003 23.6002C35.3003 25.7002 35.3003 31.8003 35.3003 31.8003C35.3003 31.8003 28.9003 21.8002 31.5003 18.0002C34.2003 14.2002 38.9003 17.1002 38.9003 17.1002C38.9003 17.1002 37.8003 10.4002 47.2003 12.6002C56.7003 14.8002 59.1003 22.8002 59.1003 22.8002C59.1003 22.8002 62.3003 22.4002 62.8003 25.3002C63.3003 28.2002 62.3003 31.3002 62.3003 31.3002C62.3003 31.3002 60.9003 30.0002 58.8003 30.9002C56.7003 31.8002 56.7003 31.8003 56.7003 31.8003L57.0003 29.8002Z" fill="black"/>
<path d="M41.0002 53.2007C41.0002 53.2007 42.8002 54.9007 47.0002 55.0007C51.2002 55.1007 54.9002 51.7007 54.9002 51.7007L57.6002 56.7007L50.9002 60.8007L39.7002 59.9007V54.9007L41.0002 53.2007Z" fill="#7C6053"/>
<path d="M45.5996 61.3003C41.0996 61.3003 38.5996 58.0003 38.4996 57.9003C38.2996 57.7003 38.3996 57.4003 38.5996 57.2003C38.7996 57.0003 39.0996 57.1003 39.2996 57.3003C39.3996 57.5003 42.4996 61.6003 48.2996 59.8003C48.5996 59.7003 48.7996 59.9003 48.8996 60.1003C48.9996 60.4003 48.7996 60.6003 48.5996 60.7003C47.4996 61.1003 46.4996 61.3003 45.5996 61.3003Z" fill="white"/>
</svg>
