<svg width="94" height="94" viewBox="0 0 94 94" fill="none" xmlns="http://www.w3.org/2000/svg">
<path d="M93.5999 47.0003C93.5999 54.9003 91.6999 62.3003 88.1999 68.8003C80.3999 83.6003 64.7999 93.6003 46.9999 93.6003C41.2999 93.6003 35.7999 92.6003 30.7999 90.7003C28.1999 89.8003 25.7999 88.6003 23.4999 87.2003C18.3999 84.2003 13.8999 80.3003 10.2999 75.7003C4.0999 67.8003 0.399902 57.8003 0.399902 46.9003C0.399902 21.1003 21.2999 0.300293 46.9999 0.300293C72.6999 0.300293 93.5999 21.2003 93.5999 47.0003Z" fill="#EDDDD6"/>
<path d="M63.7002 72.4007L30.7002 90.7007C28.1002 89.8007 25.7002 88.6007 23.4002 87.2007C18.3002 84.2007 13.8002 80.3007 10.2002 75.7007C13.7002 68.4007 21.9002 55.6007 38.4002 51.6007C41.7002 50.8007 44.7002 50.9007 47.3002 51.6007C59.6002 54.9007 63.7002 72.4007 63.7002 72.4007Z" fill="#7C6053"/>
<path d="M88.0999 68.8005C80.2999 83.6005 64.6999 93.6005 46.8999 93.6005C41.1999 93.6005 35.6999 92.6005 30.6999 90.7005C28.0999 89.8005 25.6999 88.6005 23.3999 87.2005C24.5999 73.4005 25.8999 61.8005 26.7999 59.6005C28.4999 55.7005 39.6999 53.0005 47.2999 51.6005C51.3999 50.8005 54.3999 50.5005 54.3999 50.5005C54.3999 50.5005 69.3999 51.1005 81.5999 61.3005C83.7999 63.0005 85.9999 65.7005 88.0999 68.8005Z" fill="#7C6053"/>
<path d="M36 14.2007C36 14.2007 30.7 20.2007 33.6 26.8007C36.5 33.4007 39.6 14.8007 39.6 14.8007L36 14.2007Z" fill="#ADA9C4"/>
<path d="M53.9001 41.2007L54.1001 53.1007C54.1001 53.1007 52.0001 56.6007 45.1001 57.2007C39.9001 57.7007 38.1001 56.6007 38.1001 56.6007L38.7001 50.6007L39.3001 44.7007L51.8001 41.7007L53.9001 41.2007Z" fill="#F27E64"/>
<path d="M51.7999 41.7007C51.7999 42.0007 53.6999 43.0007 53.4999 43.5007C50.8999 49.5007 41.3999 52.5007 38.3999 52.8007L39.1999 44.7007L51.7999 41.7007Z" fill="black"/>
<path d="M38.3002 14.8005C36.7002 16.1005 35.5002 18.0005 34.8002 20.0005C33.2002 24.6005 30.1002 35.3005 32.2002 41.9005C34.9002 50.4005 42.6002 48.8005 47.2002 47.0005C51.8002 45.2005 53.8002 42.2005 53.8002 42.2005C53.8002 42.2005 58.2002 43.6005 60.9002 39.4005C63.7002 35.2005 61.7002 30.6005 59.2002 29.6005C56.7002 28.6005 53.8002 30.5005 53.8002 30.5005L56.0002 26.0005C56.0002 26.0005 47.3002 7.5005 38.3002 14.8005Z" fill="#F27E64"/>
<path d="M54.5002 36.3003C54.3002 36.3003 54.2002 36.2003 54.1002 36.1003C53.9002 35.9003 54.0002 35.6003 54.2002 35.4003L58.5002 32.2003C58.7002 32.0003 59.0002 32.1003 59.2002 32.3003C59.4002 32.5003 59.3002 32.8003 59.1002 33.0003L54.8002 36.2003C54.7002 36.3003 54.6002 36.3003 54.5002 36.3003Z" fill="black"/>
<path d="M59.3999 36.2004H59.2999L55.7999 35.4004C55.4999 35.3004 55.3999 35.1004 55.3999 34.8004C55.4999 34.5004 55.6999 34.4004 55.9999 34.4004L59.4999 35.2004C59.7999 35.3004 59.8999 35.5004 59.8999 35.8004C59.7999 36.0004 59.5999 36.2004 59.3999 36.2004Z" fill="black"/>
<path d="M34.7998 28.7005H34.6998C34.3998 28.6005 34.2998 28.4005 34.2998 28.1005L34.9998 25.4005C35.0998 25.1005 35.2998 25.0005 35.5998 25.0005C35.8998 25.1005 35.9998 25.3005 35.9998 25.6005L35.2998 28.3005C35.1998 28.6005 34.9998 28.7005 34.7998 28.7005Z" fill="black"/>
<path d="M42.2998 29.1004H42.1998C41.8998 29.0004 41.7998 28.8004 41.7998 28.5004L42.4998 25.8004C42.5998 25.5004 42.7998 25.4004 43.0998 25.4004C43.3998 25.5004 43.4998 25.7004 43.4998 26.0004L42.7998 28.7004C42.7998 29.0004 42.5998 29.1004 42.2998 29.1004Z" fill="black"/>
<path d="M34.3999 22.7005C34.0999 22.7005 33.8999 22.5005 33.8999 22.3005C33.8999 22.0005 34.0999 21.8005 34.2999 21.7005L36.5999 21.5005C36.8999 21.5005 37.0999 21.7005 37.1999 21.9005C37.1999 22.2005 36.9999 22.4005 36.7999 22.5005L34.3999 22.7005Z" fill="#6C6B7C"/>
<path d="M44.5999 24.5006C44.4999 24.5006 44.4999 24.5006 44.3999 24.5006L41.2999 23.2006C40.9999 23.1006 40.8999 22.8006 40.9999 22.5006C41.0999 22.2006 41.3999 22.1006 41.6999 22.2006L44.7999 23.5006C45.0999 23.6006 45.1999 23.9006 45.0999 24.2006C44.9999 24.4006 44.7999 24.5006 44.5999 24.5006Z" fill="#6C6B7C"/>
<path d="M53.9001 30.5005C53.9001 30.5005 52.7001 35.5005 51.7001 34.8005C50.8001 34.2005 49.9001 27.1005 50.6001 23.9005C51.3001 20.7005 51.8001 19.1005 51.8001 19.1005C51.8001 19.1005 38.8001 17.9005 35.4001 14.9005C32.0001 11.8005 39.2001 9.80048 46.6001 11.2005C54.0001 12.6005 56.9001 15.4005 56.9001 15.4005C56.9001 15.4005 61.5001 14.7005 63.3001 17.5005C65.0001 20.3005 61.1001 31.1005 61.1001 31.1005C61.1001 31.1005 59.9001 28.4005 53.9001 30.5005Z" fill="#ADA9C4"/>
<path d="M29.1001 35.7006C29.1001 35.7006 32.7001 31.7006 34.6001 32.3006C36.4001 32.9006 37.1001 35.6006 37.1001 35.6006C37.1001 35.6006 39.3001 32.6006 41.7001 33.4006C44.1001 34.3006 49.3001 34.6006 49.4001 35.4006C49.5001 36.2006 48.0001 36.5006 48.0001 36.5006C48.0001 36.5006 35.7001 37.9006 29.1001 35.7006Z" fill="#ADA9C4"/>
<path d="M53.9 30.5005C53.9 30.5005 53.7 38.5005 53.8 42.2005C54 45.9005 43.7001 51.6005 36.7001 48.5005C29.6001 45.3005 31.6 36.1005 31.6 36.1005L37.9 36.7005C37.9 36.7005 39.4 35.9005 41 35.5005C42.7 35.2005 44.9 36.1005 44.9 36.1005L53.9 30.5005Z" fill="#ADA9C4"/>
<path d="M38.7998 38.5003C38.4998 38.5003 38.2998 38.3003 38.2998 38.1003C38.2998 37.8003 38.4998 37.6003 38.6998 37.6003C38.6998 37.6003 40.8998 37.3003 41.5998 35.8003C41.6998 35.6003 41.9998 35.5003 42.2998 35.6003C42.4998 35.7003 42.5998 36.0003 42.4998 36.3003C41.5998 38.2003 38.9998 38.5003 38.7998 38.5003Z" fill="black"/>
<path d="M36.9003 34.7005C36.7003 34.7005 36.5003 34.6005 36.5003 34.4005C34.7003 30.9005 37.3003 27.2005 37.4003 27.0005C37.6003 26.8005 37.9003 26.7005 38.1003 26.9005C38.3003 27.1005 38.4003 27.4005 38.2003 27.6005C38.2003 27.6005 35.9003 31.0005 37.4003 33.9005C37.5003 34.1005 37.4003 34.4005 37.2003 34.6005C37.0003 34.6005 36.9003 34.7005 36.9003 34.7005Z" fill="black"/>
<path d="M41.8 57.8006C38.3 57.8006 35.6 57.1007 35.4 57.1007C35.1 57.0007 35 56.8007 35 56.5007C35.1 56.2007 35.3 56.1007 35.6 56.1007C35.7 56.1007 48 59.2007 54.1 52.0007C54.3 51.8007 54.6 51.8006 54.8 51.9006C55 52.1006 55 52.4007 54.9 52.6007C51.3 56.8007 46 57.8006 41.8 57.8006Z" fill="white"/>
</svg>
