<svg width="94" height="94" viewBox="0 0 94 94" fill="none" xmlns="http://www.w3.org/2000/svg">
<path d="M94.0002 46.6005C94.0002 59.0005 89.2002 70.2005 81.4002 78.5005C72.9002 87.6005 60.8002 93.2005 47.4002 93.2005C32.0002 93.2005 18.3002 85.7005 9.80017 74.2005C4.10017 66.5005 0.700195 56.9005 0.700195 46.6005C0.700195 20.8005 21.6002 0.000488281 47.3002 0.000488281C73.1002 0.000488281 94.0002 20.8005 94.0002 46.6005Z" fill="#EDDDD6"/>
<path d="M43.7998 19.6006C43.7998 19.6006 50.0998 10.8006 66.0998 19.5006C82.1998 28.2006 75.2998 68.1006 75.2998 68.1006L45.0998 64.2006L43.7998 19.6006Z" fill="black"/>
<path d="M49.1001 43.0005L49.8001 54.5005C49.8001 54.5005 48.0001 57.9005 41.6001 58.9005C36.8001 59.6005 35.1001 57.1005 35.1001 57.1005L35.6001 47.0005L47.1001 43.6005L49.1001 43.0005Z" fill="#FCA397"/>
<path d="M48.9998 42.3003C48.9998 42.6003 48.8998 43.0003 48.6998 43.4003C46.5998 49.3003 37.9998 52.2003 35.2998 52.6003L35.5998 46.9003L48.9998 42.3003Z" fill="black"/>
<path d="M31.5999 20.9005C31.5999 20.9005 26.6999 35.7005 29.4999 43.5005C32.2999 51.4005 39.1999 49.6005 43.2999 47.7005C47.3999 45.8005 49.0999 43.0005 49.0999 43.0005C49.0999 43.0005 53.0999 44.1005 55.4999 40.1005C57.7999 36.1005 55.8999 31.9005 53.5999 31.0005C51.2999 30.2005 48.7 32.1005 48.7 32.1005L50.4999 27.8005C50.3999 27.7005 39.9999 7.30049 31.5999 20.9005Z" fill="#FCA397"/>
<path d="M33.5999 39.0003C33.3999 39.0003 33.1999 38.9003 33.0999 38.7003C31.8999 35.7003 33.6999 32.4003 33.7999 32.3003C33.8999 32.1003 34.1999 32.0003 34.4999 32.1003C34.6999 32.2003 34.8 32.5003 34.7 32.8003C34.7 32.8003 32.9999 35.8003 33.9999 38.4003C34.0999 38.7003 34 38.9003 33.7 39.0003H33.5999Z" fill="black"/>
<path d="M49.8 38.7005C49.7 38.7005 49.6 38.7005 49.5 38.6005C49.3 38.4005 49.2 38.1005 49.4 37.9005L52.8 33.5005C53 33.3005 53.3 33.2005 53.5 33.4005C53.7 33.6005 53.8 33.9005 53.6 34.1005L50.2 38.5005C50.1 38.7005 49.9 38.7005 49.8 38.7005Z" fill="black"/>
<path d="M53.5999 37.3006L50.8999 37.1006C50.5999 37.1006 50.3999 36.8006 50.3999 36.6006C50.3999 36.3006 50.6999 36.1006 50.8999 36.1006L53.4999 36.3006C53.7999 36.3006 53.9999 36.6006 53.9999 36.8006C54.0999 37.1006 53.8999 37.3006 53.5999 37.3006Z" fill="black"/>
<path d="M29.9 27.5004C29.7 27.5004 29.5 27.4004 29.4 27.1004C29.3 26.8004 29.5 26.6004 29.8 26.5004L32.2 25.8004C32.5 25.7004 32.7 25.9004 32.8 26.2004C32.9 26.5004 32.7 26.7004 32.4 26.8004L30 27.5004H29.9Z" fill="black"/>
<path d="M40.1998 28.3004H40.0998L36.6998 27.4004C36.3998 27.3004 36.2998 27.1004 36.2998 26.8004C36.3998 26.5004 36.5998 26.4004 36.8998 26.4004L40.2998 27.3004C40.5998 27.4004 40.6998 27.6004 40.6998 27.9004C40.5998 28.2004 40.3998 28.3004 40.1998 28.3004Z" fill="black"/>
<path d="M30.3998 33.4006H30.2998C29.9998 33.3006 29.8998 33.1006 29.8998 32.8006L30.3998 30.4006L29.6998 29.7006C29.4998 29.5006 29.4998 29.2006 29.6998 29.0006C29.8998 28.8006 30.1998 28.8006 30.3998 29.0006L31.1998 29.9006C31.2998 30.0006 31.3998 30.2006 31.2998 30.3006L30.7998 32.9006C30.8998 33.2006 30.5998 33.4006 30.3998 33.4006Z" fill="black"/>
<path d="M38.0001 33.5004H37.9001C37.6001 33.4004 37.5001 33.2004 37.5001 32.9004L38.0001 30.5004L37.0001 29.5004C36.8001 29.3004 36.8001 29.0004 37.0001 28.8004C37.2001 28.6004 37.5001 28.6004 37.7001 28.8004L38.9001 30.0004C39.0001 30.1004 39.1001 30.3004 39.0001 30.5004L38.5001 33.1004C38.4001 33.3004 38.2001 33.5004 38.0001 33.5004Z" fill="black"/>
<path d="M34.9999 59.1004C34.9999 59.1004 33.7999 53.0004 35.3999 52.6004C36.9999 52.2004 38.8999 53.3004 42.6999 52.3004C46.4999 51.4004 48.3998 50.0004 49.5998 49.9004C50.7998 49.8004 50.3999 57.5004 50.3999 57.5004L41.0998 61.4004L34.9999 59.1004Z" fill="#507849"/>
<path d="M54.2002 31.3007C54.2002 31.3007 52.4002 30.7007 51.0002 30.9007C49.6002 31.2007 48.6002 32.0007 48.6002 32.0007L46.9002 34.3007L47.8002 29.6007C47.8002 29.6007 46.6002 28.9007 44.8002 28.2007L45.4002 24.1007L43.7002 27.8007C42.0002 27.2007 39.9002 26.5007 37.9002 26.3007C36.8002 26.2007 35.8002 26.1007 34.9002 26.1007L35.4002 21.7007L33.7002 26.1007C31.5002 26.2007 30.4002 26.5007 30.4002 26.5007L28.9002 31.1007C28.9002 31.1007 28.5002 18.8007 33.9002 15.4007C39.2002 12.0007 49.0002 12.0007 53.5002 17.8007C58.2002 23.7007 54.2002 31.3007 54.2002 31.3007Z" fill="black"/>
<path d="M37.3999 42.1005C37.0999 42.1005 36.8999 41.9005 36.8999 41.7005C36.8999 41.4005 37.0999 41.2005 37.2999 41.1005C37.3999 41.1005 38.6999 40.9005 39.6999 39.0005C39.7999 38.8005 40.0999 38.7005 40.3999 38.8005C40.5999 38.9005 40.6999 39.2005 40.5999 39.5005C39.3999 41.8005 37.4999 42.1005 37.3999 42.1005Z" fill="black"/>
<path d="M81.3998 78.5005C72.8998 87.6005 60.7998 93.2005 47.3998 93.2005C31.9998 93.2005 18.2998 85.7005 9.7998 74.2005C13.9998 69.0005 23.0998 59.5005 35.0998 57.0005C50.7998 53.7005 73.0998 57.3005 81.3998 78.5005Z" fill="#507849"/>
<path d="M44.2998 56.2007C43.9998 56.2007 43.7998 56.0007 43.7998 55.7007C43.7998 55.4007 43.9998 55.2007 44.2998 55.2007C44.2998 55.2007 46.9998 55.2007 49.4998 54.0007C49.6998 53.9007 49.9998 54.0007 50.1998 54.2007C50.2998 54.5007 50.1998 54.7007 49.9998 54.9007C47.1998 56.2007 44.4998 56.2007 44.2998 56.2007Z" fill="white"/>
</svg>
