<svg width="94" height="94" viewBox="0 0 94 94" fill="none" xmlns="http://www.w3.org/2000/svg">
<path d="M93.9998 47.0003C93.9998 56.9003 90.8998 66.1003 85.5998 73.6003C82.6998 77.8003 79.0998 81.5003 74.9998 84.5003C74.9998 84.5003 74.8998 84.5003 74.8998 84.6003C74.5998 84.8003 74.3998 85.0003 74.0998 85.2003C68.9998 88.8003 63.1998 91.3003 56.9998 92.6003C53.8998 93.3003 50.6998 93.6003 47.3998 93.6003C39.7998 93.6003 32.6998 91.8003 26.3998 88.6003C22.6998 86.8003 19.3998 84.5003 16.3998 81.7003C14.7998 80.2003 13.1998 78.7003 11.7998 77.0003C9.4998 74.3003 7.49981 71.3003 5.89981 68.1003C2.69981 61.7003 0.799805 54.6003 0.799805 47.0003C0.799805 21.2003 21.6998 0.40026 47.3998 0.40026C73.0998 0.30026 93.9998 21.2003 93.9998 47.0003Z" fill="#EDDDD6"/>
<path d="M85.6 73.6003C82.7 77.8003 79 81.5003 74.9 84.6003C69.6 88.5003 63.6 91.2003 57 92.6003C57 84.0003 57.5 77.1003 57.5 77.1003C57.5 77.1003 72 56.1002 72.2 56.3002C73.8 57.6002 79.8 62.7003 85.6 73.6003Z" fill="#46467F"/>
<path d="M74.9999 84.6004C69.6999 88.5004 63.6999 91.2004 57.0999 92.6004C53.9999 93.3004 50.7999 93.6004 47.4999 93.6004C39.8999 93.6004 32.7999 91.8004 26.4999 88.6004C22.7999 86.8004 19.4999 84.5004 16.4999 81.7004C14.8999 80.2004 13.2999 78.7004 11.8999 77.0004C14.7999 67.3004 20.9999 60.0004 22.8999 57.8004C23.3999 57.3004 23.8999 56.8004 24.4999 56.3004C26.8999 54.4004 30.1999 53.2004 33.3999 52.4004H33.4999C37.3999 51.4004 41.2999 51.1004 43.3999 51.0004C44.5999 50.9004 45.2999 50.9004 45.2999 50.9004C45.2999 50.9004 51.2999 51.5004 57.7999 52.5004C63.5999 53.4004 69.7999 54.7004 72.3999 56.2004C72.4999 56.3004 72.5999 56.4004 72.6999 56.6004C74.0999 59.0004 74.6999 70.8004 74.9999 84.6004Z" fill="#46467F"/>
<path d="M33.2998 29.6003C33.2998 29.6003 33.6998 36.6003 36.7998 36.9003C39.8998 37.2003 44.5998 33.2003 44.5998 33.2003L42.3998 25.3003L33.2998 29.6003Z" fill="black"/>
<path d="M42.3999 42.7007L42.4999 53.7007C42.4999 53.7007 44.5999 56.8007 51.2999 57.3007C56.2999 57.7007 58.0999 56.6007 58.0999 56.6007L57.2999 51.0007L56.4999 45.6007L44.4999 43.1007L42.3999 42.7007Z" fill="#FCA397"/>
<path d="M45.1001 43.2007C45.1001 43.5007 45.2001 43.9007 45.4001 44.3007C47.9001 49.8007 54.6001 50.9007 57.4001 51.1007L56.7001 45.7007L45.1001 43.2007Z" fill="black"/>
<path d="M58.9999 20.6003C58.9999 20.6003 64.8999 34.3003 62.6999 42.0003C60.4999 49.7003 53.4999 48.4003 49.2999 46.9003C45.0999 45.4003 43.1999 42.8003 43.1999 42.8003C43.1999 42.8003 39.2999 44.1003 36.6999 40.4003C34.0999 36.7003 35.6999 32.6003 37.9999 31.6003C40.1999 30.7003 42.8999 32.3003 42.8999 32.3003L40.7999 28.3003C40.7999 28.3003 49.6999 8.20029 58.9999 20.6003Z" fill="#FCA397"/>
<path d="M42.5002 38.3005C42.4002 38.3005 42.3002 38.3005 42.2002 38.2005L37.2002 34.7005C37.0002 34.5005 36.9002 34.2005 37.1002 34.0005C37.3002 33.8005 37.6002 33.7005 37.8002 33.9005L42.8002 37.4005C43.0002 37.6005 43.1002 37.9005 42.9002 38.1005C42.8002 38.2005 42.6002 38.3005 42.5002 38.3005Z" fill="black"/>
<path d="M37.9996 38.3005C37.7996 38.3005 37.5996 38.2005 37.4996 37.9005C37.3996 37.6005 37.5996 37.4005 37.8996 37.3005L41.0996 36.4005C41.3996 36.3005 41.5996 36.5005 41.6996 36.8005C41.7996 37.1005 41.5996 37.3005 41.2996 37.4005L38.0996 38.3005H37.9996Z" fill="black"/>
<path d="M49.5002 27.2006C49.4002 27.2006 49.3002 27.2006 49.2002 27.1006C49.0002 27.0006 48.9002 26.7006 49.0002 26.4006C50.3002 24.3006 52.3002 24.4006 53.2002 24.7006C53.5002 24.8006 53.6002 25.1006 53.5002 25.3006C53.4002 25.6006 53.1002 25.7006 52.9002 25.6006C52.8002 25.6006 51.0002 24.9006 49.9002 26.8006C49.8002 27.1006 49.6002 27.2006 49.5002 27.2006Z" fill="black"/>
<path d="M60.4998 25.9003C60.3998 25.9003 60.2998 25.9003 60.1998 25.8003C59.0998 24.9003 57.8998 25.6004 57.7998 25.6004C57.5998 25.7004 57.2998 25.7003 57.0998 25.4003C56.9998 25.2003 56.9998 24.9004 57.2998 24.7004C57.3998 24.7004 59.0998 23.6003 60.7998 25.0003C60.9998 25.2003 60.9998 25.5004 60.8998 25.7004C60.6998 25.8004 60.5998 25.9003 60.4998 25.9003Z" fill="black"/>
<path d="M58.5001 37.6005H58.4001C58.1001 37.5005 58.0001 37.3005 58.0001 37.0005C58.7001 34.4005 56.9001 30.5005 56.9001 30.5005C56.8001 30.2005 56.9001 30.0005 57.1001 29.8005C57.3001 29.7005 57.6001 29.8005 57.8001 30.0005C57.9001 30.2005 59.8001 34.3005 59.0001 37.2005C59.0001 37.4005 58.8001 37.6005 58.5001 37.6005Z" fill="black"/>
<path d="M59.5 31.2004C59.3 31.2004 59.1 31.1004 59 30.8004L58.3 28.3004C58.2 28.0004 58.4 27.8004 58.6 27.7004C58.9 27.6004 59.1 27.8004 59.2 28.0004L59.9 30.5004C60 30.8004 59.8 31.0004 59.6 31.1004C59.5 31.2004 59.5 31.2004 59.5 31.2004Z" fill="black"/>
<path d="M52 31.4006C51.8 31.4006 51.6 31.3006 51.5 31.0006L50.8 28.5006C50.7 28.2006 50.9 28.0006 51.1 27.9006C51.4 27.8006 51.6 28.0006 51.7 28.2006L52.4 30.7006C52.5 31.0006 52.3 31.2006 52.1 31.3006C52.1 31.4006 52.1 31.4006 52 31.4006Z" fill="black"/>
<path d="M59.7002 22.6005C59.7002 22.6005 58.9002 21.5005 56.2002 21.5005C53.5002 21.5005 51.9002 23.4005 51.9002 23.4005C51.9002 23.4005 51.7002 28.4005 48.0002 30.8005C44.3002 33.3005 42.9002 32.3005 42.9002 32.3005L40.2002 31.4005L38.2002 27.5005L45.9002 19.0005L55.2002 15.0005L59.8002 20.1005V22.6005H59.7002Z" fill="black"/>
<path d="M55.8002 40.7004C55.0002 40.7004 53.0002 40.5003 52.0002 38.4003C51.9002 38.2003 52.0002 37.9004 52.2002 37.7004C52.4002 37.6004 52.7002 37.7003 52.9002 37.9003C53.8002 39.8003 55.9002 39.6004 56.0002 39.6004C56.3002 39.6004 56.5002 39.8004 56.5002 40.0004C56.5002 40.3004 56.3002 40.5004 56.1002 40.5004C56.1002 40.7004 55.9002 40.7004 55.8002 40.7004Z" fill="black"/>
<path d="M34.9 36.1004C33 34.1004 31.4 29.3004 31.8 26.6004L31.9 26.1004C31.9 26.1004 28.7 25.8004 29.8 21.5004C30.9 17.3004 36.3 11.6004 44.7 9.50035C53.1 7.40035 59.8 20.2004 59.8 20.2004C59.8 20.2004 52.7 19.8003 47.4 23.8003C42.1 27.8003 40.1 31.4003 40.1 31.4003L34.9 36.1004Z" fill="#7C6053"/>
<path d="M53.5 57.7005C46.8 57.7005 41.8 54.3005 41.5 54.2005C41.3 54.0005 41.2 53.7005 41.4 53.5005C41.6 53.3005 41.9 53.2005 42.1 53.4005C42.2 53.5005 49.6 58.4005 58 56.2005C58.3 56.1005 58.5 56.3005 58.6 56.6005C58.7 56.9005 58.5 57.1005 58.2 57.2005C56.6 57.5005 55 57.7005 53.5 57.7005Z" fill="#F7734F"/>
<path d="M31.7 27.0004C31.6 27.0004 31.5 27.0003 31.5 26.9003C31.3 26.8003 31.2 26.5004 31.3 26.2004L32.9 23.4003C33 23.2003 33.3 23.1004 33.6 23.2004C33.8 23.3004 33.9 23.6003 33.8 23.9003L32.2 26.7004C32.1 27.0004 31.9 27.0004 31.7 27.0004Z" fill="#FFBF69"/>
<path d="M74.9996 84.5003C74.6996 84.8003 74.3996 85.0003 74.0996 85.1003L71.4996 72.3003C71.3996 72.0003 71.5996 71.8003 71.8996 71.7003C72.1996 71.6003 72.3996 71.8003 72.4996 72.1003L74.9996 84.5003Z" fill="#F7734F"/>
</svg>
