<svg width="94" height="94" viewBox="0 0 94 94" fill="none" xmlns="http://www.w3.org/2000/svg">
<path d="M93.5998 46.6005C93.5998 58.0005 89.4998 68.5005 82.5998 76.6005C81.6998 77.6005 80.7998 78.6005 79.8998 79.6005C78.3998 81.1005 76.7998 82.5005 74.9998 83.8005C74.1998 84.4005 73.2998 85.1005 72.3998 85.6005C72.2998 85.7005 72.1998 85.7005 72.0998 85.8005C70.7998 86.6005 69.4998 87.4005 68.1998 88.1005C67.8998 88.3005 67.5998 88.4005 67.2998 88.6005C65.8998 89.3005 64.3998 89.9005 62.7998 90.5005C60.7998 91.2005 58.6998 91.8005 56.5998 92.3005C53.4998 93.0005 50.2998 93.3005 46.9998 93.3005C45.5998 93.3005 44.1998 93.2005 42.7998 93.1005C41.3998 93.0005 39.8998 92.8005 38.4998 92.5005C37.6998 92.4005 36.9998 92.2005 36.1998 92.0005C33.9998 91.5005 31.7998 90.8005 29.6998 90.0005C27.8998 89.3005 26.0998 88.4005 24.2998 87.5005C24.0998 87.4005 23.8998 87.3005 23.6998 87.2005C22.4998 86.5005 21.3998 85.8005 20.2998 85.0005C19.3998 84.4005 18.3998 83.7005 17.4998 82.9005C17.3998 82.8005 17.2998 82.7005 17.1998 82.6005C15.8998 81.5005 14.6998 80.4005 13.4998 79.2005C13.1998 78.9005 12.8998 78.5005 12.4998 78.2005C11.5998 77.2005 10.7998 76.2005 9.99982 75.2005C9.19982 74.2005 8.4998 73.1005 7.7998 72.0005C2.9998 64.7005 0.299805 56.0005 0.299805 46.6005C0.299805 20.8005 21.1998 0.000488281 46.8998 0.000488281C72.5998 0.000488281 93.5998 20.8005 93.5998 46.6005Z" fill="#EDDDD6"/>
<path d="M82.7002 76.6003C81.8002 77.6003 80.9002 78.6003 80.0002 79.6003C78.5002 81.1003 76.9002 82.5003 75.1002 83.8003C74.3002 84.4003 73.4002 85.1003 72.5002 85.6003C72.4002 85.7003 72.3002 85.7003 72.2002 85.8003L72.5002 65.3003C72.5002 65.3003 77.3002 69.8003 82.7002 76.6003Z" fill="#FFBF69"/>
<path d="M68.2998 88.1003C67.9998 88.3003 67.6998 88.4003 67.3998 88.6003C63.9998 90.2003 60.4998 91.5003 56.6998 92.3003C53.5998 93.0003 50.3998 93.3003 47.0998 93.3003C45.6998 93.3003 44.2998 93.2003 42.8998 93.1003C41.4998 93.0003 39.9998 92.8003 38.5998 92.5003C37.7998 92.4003 37.0998 92.2003 36.2998 92.0003C34.0998 91.5003 31.8998 90.8003 29.7998 90.0003L39.4998 57.0003C39.4998 57.0003 47.0998 55.9003 55.6998 56.8003C61.2998 57.3003 65.7998 75.5003 68.2998 88.1003Z" fill="#7772D3"/>
<path d="M55.7001 56.7004L40.9001 57.6004C40.9001 57.6004 39.4001 73.0004 38.5001 92.4004C37.7001 92.3004 37.0001 92.1004 36.2001 91.9004C32.0001 90.9004 28.1001 89.4004 24.4001 87.3004C24.2001 87.2004 24.0001 87.1004 23.8001 87.0004C22.6001 86.3004 21.5001 85.6004 20.4001 84.8004C19.5001 84.2004 18.5001 83.5004 17.6001 82.7004C17.5001 82.6004 17.4001 82.5004 17.3001 82.4004C16.0001 81.3004 14.8001 80.2004 13.6001 79.0004C13.3001 78.7004 13.0001 78.3004 12.6001 78.0004C12.9001 71.7004 13.7001 66.9004 15.5001 65.3004C23.4001 58.0004 42.9001 55.5004 42.9001 55.5004L52.0001 55.4004C52.1001 55.5004 53.6001 55.9004 55.7001 56.7004Z" fill="#FFBF69"/>
<path d="M75.0998 83.8006C74.2998 84.4006 73.3998 85.1006 72.4998 85.6006C71.0998 86.5006 69.6998 87.3006 68.2998 88.0006C67.9998 88.2006 67.6998 88.3006 67.3998 88.5006C65.9998 89.2006 64.4998 89.8006 62.8998 90.4006C62.8998 90.3006 62.8998 90.2006 62.8998 90.0006C60.2998 62.8006 56.0998 57.0006 55.7998 56.6006C61.3998 58.5006 71.8998 62.6006 73.7998 67.1006C74.4998 68.8006 74.8998 75.3006 75.0998 83.8006Z" fill="#FFBF69"/>
<path d="M46.4001 21.7006C46.4001 21.7006 36.8001 0.300617 25.8001 11.2006C16.6001 20.3006 30.9001 34.4006 39.1001 30.4006C47.4001 26.3006 46.4001 21.7006 46.4001 21.7006Z" fill="black"/>
<path d="M61.1001 39.2004C61.1001 39.2004 65.1001 34.7004 63.8001 27.9004C63.0001 23.3004 60.9001 21.8004 60.9001 21.8004C60.9001 21.8004 64.0001 15.4004 54.6001 15.9004C45.2001 16.4004 39.7001 21.1004 39.7001 21.1004C39.7001 21.1004 35.4001 19.0004 33.5001 24.1004C31.6001 29.1004 33.7001 36.5004 33.7001 36.5004L61.1001 39.2004Z" fill="black"/>
<path d="M40.5 47.3003L40.9 58.8003C40.9 58.8003 43.1 62.0003 49.8 62.3003C54.8 62.5003 56.3 59.9003 56.3 59.9003L54.7 49.9003L42.5 47.7003L40.5 47.3003Z" fill="#F27E64"/>
<path d="M40.5 46.6006C40.5 46.9006 40.7 47.3006 40.9 47.7006C43.7 53.3006 52.8 55.4006 55.7 55.5006L54.8 49.9006L40.5 46.6006Z" fill="black"/>
<path d="M56.3003 23.6006C56.3003 23.6006 62.9003 37.7006 60.8003 45.8006C58.7003 53.9006 51.4003 52.8006 47.0003 51.3006C42.6003 49.9006 40.5003 47.2006 40.5003 47.2006C40.5003 47.2006 36.4003 48.7006 33.6003 44.9006C30.8003 41.2006 32.4003 36.8006 34.7003 35.7006C37.0003 34.6006 39.8003 36.3006 39.8003 36.3006L37.5003 32.2006C37.6003 32.3006 46.2003 10.9006 56.3003 23.6006Z" fill="#F27E64"/>
<path d="M39.8002 36.4005C39.8002 36.4005 46.0002 37.6005 50.1002 30.7005C54.3002 23.8005 53.8002 21.0005 53.8002 21.0005L58.2002 28.0005C58.2002 28.0005 59.1002 23.1005 57.1002 20.0005C55.1002 16.9005 53.1002 17.6005 53.1002 17.6005L39.6002 21.2005L36.2002 32.1005L39.8002 36.4005Z" fill="black"/>
<path d="M56.1 41.8007H56C55.7 41.7007 55.6 41.4007 55.7 41.2007C56.5 38.6007 54.5 35.8007 54.4 35.8007C54.2 35.6007 54.3 35.3007 54.5 35.1007C54.7 34.9007 55 35.0007 55.2 35.2007C55.3 35.3007 57.5 38.4007 56.6 41.5007C56.5 41.7007 56.3 41.8007 56.1 41.8007Z" fill="black"/>
<path d="M39.3 43.1003C39.2 43.1003 39 43.0003 38.9 42.9003L34.9 38.9003C34.7 38.7003 34.7 38.4003 34.9 38.2003C35.1 38.0003 35.4 38.0003 35.6 38.2003L39.6 42.2003C39.8 42.4003 39.8 42.7003 39.6 42.9003C39.6 43.1003 39.5 43.1003 39.3 43.1003Z" fill="black"/>
<path d="M35.2002 42.1006C35.0002 42.1006 34.7002 41.9006 34.7002 41.7006C34.7002 41.4006 34.8002 41.2006 35.1002 41.1006L37.8002 40.6006C38.1002 40.6006 38.3002 40.7006 38.4002 41.0006C38.4002 41.3006 38.3002 41.5006 38.0002 41.6006L35.2002 42.1006Z" fill="black"/>
<path d="M58.6998 30.1003L56.0998 29.7003C55.7998 29.7003 55.5998 29.4003 55.6998 29.1003C55.6998 28.8003 55.9998 28.6003 56.2998 28.7003L58.7998 29.1003C59.0998 29.1003 59.2998 29.4003 59.1998 29.7003C59.0998 29.9003 58.8998 30.1003 58.6998 30.1003Z" fill="black"/>
<path d="M48.2 31.9004C48 31.9004 47.8 31.8004 47.8 31.6004C47.7 31.4004 47.8 31.1004 48 30.9004L52.1 28.7004C52.3 28.6004 52.6 28.7004 52.8 28.9004C52.9 29.1004 52.8 29.4004 52.6 29.6004L48.5 31.8004C48.3 31.8004 48.2 31.9004 48.2 31.9004Z" fill="black"/>
<path d="M58.7999 35.9005C58.5999 35.9005 58.3999 35.8005 58.2999 35.6005L57.4999 33.0005C57.3999 32.8005 57.4999 32.7005 57.5999 32.5005L58.3999 31.5005C58.5999 31.3005 58.8999 31.2005 59.0999 31.4005C59.2999 31.6005 59.3999 31.9005 59.1999 32.1005L58.5999 32.9005L59.2999 35.2005C59.3999 35.5005 59.1999 35.7005 58.9999 35.8005C58.8999 35.9005 58.7999 35.9005 58.7999 35.9005Z" fill="black"/>
<path d="M50.6002 36.7006C50.4002 36.7006 50.2002 36.6006 50.1002 36.4006L49.3002 33.8006C49.2002 33.6006 49.3002 33.5006 49.4002 33.3006L50.5002 32.0006C50.7002 31.8006 51.0002 31.8006 51.2002 31.9006C51.4002 32.1006 51.4002 32.4006 51.3002 32.6006L50.4002 33.7006L51.1002 36.0006C51.2002 36.3006 51.0002 36.5006 50.8002 36.6006C50.7002 36.7006 50.6002 36.7006 50.6002 36.7006Z" fill="black"/>
<path d="M54.1002 45.6003C52.3002 45.6003 50.3002 43.7003 50.1002 43.4003C49.9002 43.2003 49.9002 42.9003 50.1002 42.7003C50.3002 42.5003 50.6002 42.5003 50.8002 42.7003C51.5002 43.4003 53.6002 45.1003 54.7002 44.4003C54.9002 44.3003 55.2002 44.3003 55.4002 44.6003C55.5002 44.8003 55.5002 45.1003 55.2002 45.3003C54.8002 45.5003 54.4002 45.6003 54.1002 45.6003Z" fill="black"/>
<path d="M20.3999 84.8005C19.4999 84.2005 18.4999 83.5005 17.5999 82.7005C17.4999 82.6005 17.3999 82.5005 17.2999 82.4005C15.9999 81.3005 14.7999 80.2005 13.5999 79.0005C12.3999 77.7005 11.1999 76.4005 10.0999 75.0005C9.29991 74.0005 8.5999 72.9005 7.8999 71.8005C14.1999 65.8005 19.3999 62.5005 19.3999 62.5005L20.3999 84.8005Z" fill="#FFBF69"/>
<path d="M50.9001 62.8005C50.6001 62.8005 50.2001 62.8005 49.8001 62.8005C45.3001 62.4005 40.8001 59.3005 40.6001 59.2005C40.4001 59.0005 40.3001 58.7005 40.5001 58.5005C40.7001 58.3005 41.0001 58.2005 41.2001 58.4005C41.2001 58.4005 45.7001 61.4005 49.9001 61.8005C54.3001 62.2005 55.9001 59.7005 55.9001 59.6005C56.0001 59.4005 56.3001 59.3005 56.6001 59.4005C56.8001 59.5005 56.9001 59.8005 56.8001 60.1005C56.8001 60.2005 55.2001 62.8005 50.9001 62.8005Z" fill="white"/>
</svg>
