<svg width="94" height="94" viewBox="0 0 94 94" fill="none" xmlns="http://www.w3.org/2000/svg">
<path d="M93.3002 46.6005C93.3002 51.5005 92.6002 56.2005 91.2002 60.6005C89.1002 67.3005 85.5002 73.4005 80.8002 78.4005C80.7002 78.5005 80.6002 78.6005 80.5002 78.7005C80.4002 78.9005 80.2002 79.0005 80.1002 79.1005C71.6002 87.7005 59.8002 93.1005 46.8002 93.1005C44.8002 93.1005 42.8002 93.0005 40.8002 92.7005C40.8002 92.7005 40.8002 92.7005 40.7002 92.7005C35.9002 92.1005 31.3002 90.7005 27.1002 88.8005C26.8002 88.6005 26.4002 88.5005 26.1002 88.3005C19.2002 84.9005 13.3002 79.8005 8.9002 73.6005C8.5002 73.1005 8.10019 72.5005 7.80019 72.0005C6.90019 70.6005 6.10019 69.2005 5.30019 67.8005C2.00019 61.4005 0.200195 54.2005 0.200195 46.6005C0.200195 20.8005 21.1002 0.000488281 46.8002 0.000488281C72.5002 0.000488281 93.3002 20.8005 93.3002 46.6005Z" fill="#EDDDD6"/>
<path d="M80.7 78.4004C80.6 78.5004 80.5 78.6004 80.4 78.7004C80.3 78.9004 80.1 79.0004 80 79.1004C71.5 87.7004 59.7 93.1004 46.7 93.1004C44.7 93.1004 42.7 93.0004 40.7 92.7004C40.7 92.7004 40.7 92.7004 40.6 92.7004C35.8 92.1004 31.2 90.7004 27 88.8004C27.4 71.9004 27.2 57.1004 27.2 56.8004C27.4 56.5004 35.2 54.4004 45.6 54.1004C62 53.7004 75.9 62.9004 80.7 78.4004Z" fill="#507849"/>
<path d="M40.6998 92.8006C35.8998 92.2006 31.2998 90.8006 26.9998 88.8006C26.6998 88.6006 26.2998 88.5006 25.9998 88.3006C19.0998 84.9006 13.1998 79.8006 8.7998 73.6006C17.7998 61.3006 25.0998 57.7006 27.2998 56.8006C27.6998 56.6006 27.9998 56.6006 27.9998 56.6006L40.6998 92.8006Z" fill="#507849"/>
<path d="M46.8 26.8005C46.8 26.8005 57.6 27.3005 58.2 17.0005C58.8 6.00054 48.7 5.00053 44.4 9.40053C40.1 13.8005 40.9 18.4005 40.9 18.4005C40.9 18.4005 37.9 15.7005 34.6 19.0005C32.2 21.4005 33.4 25.4005 33.4 25.4005C33.4 25.4005 27.8 25.2005 28.4 30.0005C28.9 34.8005 32.4 37.3005 32.4 37.3005L46.8 26.8005Z" fill="#E56445"/>
<path d="M37 45.8003L38.1 57.2003C38.1 57.2003 40.5 60.3003 47.2 60.2003C52.2 60.1003 53.9 58.8003 53.9 58.8003L52.6 53.1003L51.4 47.5003L39.1 46.0003L37 45.8003Z" fill="#FCA397"/>
<path d="M39.1001 46.1006C39.2001 46.4006 39.3001 46.8006 39.5001 47.2006C42.6001 52.7006 49.7001 53.2006 52.6001 53.2006L51.4001 47.6006L39.1001 46.1006Z" fill="black"/>
<path d="M51.4 21.2006C51.4 21.2006 58.8 35.0006 57.2 43.2006C55.6 51.4006 48.2 50.7007 43.7 49.5007C39.2 48.3007 37 45.8007 37 45.8007C37 45.8007 33 47.5006 30 43.9006C27 40.3006 28.3 35.8007 30.5 34.6007C32.7 33.4007 35.7 34.9006 35.7 34.9006L33.2 30.9006C33.2 31.0006 40.6 9.20065 51.4 21.2006Z" fill="#FCA397"/>
<path d="M35.8 41.3004C35.7 41.3004 35.6 41.3004 35.5 41.2004L31 38.6004C30.8 38.5004 30.7 38.2004 30.8 37.9004C30.9 37.7004 31.2 37.6004 31.5 37.7004L36 40.3004C36.2 40.4004 36.3 40.7004 36.2 41.0004C36.2 41.2004 36 41.3004 35.8 41.3004Z" fill="black"/>
<path d="M32.0999 41.6006C31.8999 41.6006 31.6999 41.5006 31.6999 41.3006C31.5999 41.1006 31.6999 40.8006 31.8999 40.6006L34.1999 39.4006C34.3999 39.3006 34.6999 39.4006 34.8999 39.6006C34.9999 39.8006 34.8999 40.1006 34.6999 40.3006L32.3999 41.5006C32.2999 41.6006 32.1999 41.6006 32.0999 41.6006Z" fill="black"/>
<path d="M53.4 26.6003C53.3 26.6003 53.2 26.6003 53.1 26.5003C51.8 25.6003 50.6 26.5003 50.6 26.5003C50.4 26.7003 50.1 26.6003 49.9 26.4003C49.7 26.2003 49.8 25.9003 50 25.7003C50.1 25.6003 51.8 24.4003 53.6 25.7003C53.8 25.9003 53.9 26.2003 53.7 26.4003C53.7 26.6003 53.6 26.6003 53.4 26.6003Z" fill="black"/>
<path d="M51.8998 39.7004C51.4998 39.6004 51.3998 39.4004 51.3998 39.1004C52.1998 34.8004 49.7998 32.1004 49.6998 32.0004C49.4998 31.8004 49.4998 31.5004 49.6998 31.3004C49.8998 31.1004 50.1998 31.1004 50.3998 31.3004C50.4998 31.4004 53.1998 34.5004 52.2998 39.2004C52.2998 39.5004 52.0998 39.7004 51.8998 39.7004Z" fill="black"/>
<path d="M53.3998 33.4007C53.0998 33.4007 52.8998 33.2007 52.8998 32.9007L52.7998 30.2007C52.7998 29.9007 52.9998 29.7007 53.2998 29.7007C53.5998 29.7007 53.7998 29.9007 53.7998 30.2007L53.8998 32.9007C53.8998 33.1007 53.6998 33.4007 53.3998 33.4007Z" fill="black"/>
<path d="M45.8998 34.1004C45.5998 34.1004 45.3998 33.9004 45.3998 33.6004L45.2998 30.9004C45.2998 30.6004 45.4998 30.4004 45.7998 30.4004C46.0998 30.4004 46.2998 30.6004 46.2998 30.9004L46.3998 33.6004C46.3998 33.9004 46.1998 34.1004 45.8998 34.1004Z" fill="black"/>
<path d="M52.8998 24.4007C52.8998 24.4007 51.3998 22.2007 48.5998 22.5007C45.6998 22.8007 44.2998 24.9007 44.2998 24.9007C44.2998 24.9007 45.9998 29.6007 42.3998 32.5007C38.7998 35.4007 35.6998 35.0007 35.6998 35.0007L32.7998 34.3007L30.2998 30.4007L37.5998 20.8007L47.5998 14.2007L53.3998 18.5007L52.8998 24.4007Z" fill="#E56445"/>
<path d="M49.5 42.6005C48.5 42.6005 46.8 42.3005 45.8 40.5005C45.7 40.3005 45.7 40.0005 46 39.8005C46.2 39.7005 46.5 39.7005 46.7 40.0005C47.8 41.9005 50.1 41.5005 50.1 41.5005C50.4 41.4005 50.6 41.6005 50.7 41.9005C50.8 42.2005 50.6 42.4005 50.3 42.5005C50.2 42.5005 49.9 42.6005 49.5 42.6005Z" fill="black"/>
<path d="M56.4 37.5005C53.7 37.5005 51.5 35.2005 51.5 32.5005C51.5 29.7005 53.7 27.5005 56.4 27.5005C59.1 27.5005 61.3 29.8005 61.3 32.5005C61.3 35.2005 59.1 37.5005 56.4 37.5005ZM56.4 28.5005C54.3 28.5005 52.5 30.3005 52.5 32.5005C52.5 34.7005 54.2 36.5005 56.4 36.5005C58.5 36.5005 60.3 34.7005 60.3 32.5005C60.3 30.3005 58.6 28.5005 56.4 28.5005Z" fill="white"/>
<path d="M44.8999 38.6006C42.0999 38.6006 39.8999 36.3006 39.8999 33.6006C39.8999 30.8006 42.1999 28.6006 44.8999 28.6006C47.6999 28.6006 49.8999 30.9006 49.8999 33.6006C49.8999 36.4006 47.5999 38.6006 44.8999 38.6006ZM44.8999 29.6006C42.6999 29.6006 40.8999 31.4006 40.8999 33.6006C40.8999 35.8006 42.6999 37.6006 44.8999 37.6006C47.0999 37.6006 48.8999 35.8006 48.8999 33.6006C48.8999 31.4006 47.0999 29.6006 44.8999 29.6006Z" fill="white"/>
<path d="M48.8999 33.6003C48.5999 33.6003 48.3999 33.4003 48.3999 33.1003C48.3999 32.8003 48.5999 32.6003 48.8999 32.6003L52.3999 32.3003C52.6999 32.3003 52.8999 32.5003 52.8999 32.8003C52.8999 33.1003 52.6999 33.3003 52.3999 33.3003L48.8999 33.6003Z" fill="white"/>
<path d="M32.8001 34.8003C32.7001 34.8003 32.6001 34.8003 32.5001 34.7003C32.3001 34.5003 32.3001 34.2003 32.5001 34.0003C35.2001 31.1003 40.4001 33.8003 40.7001 33.9003C40.9001 34.0003 41.0001 34.3003 40.9001 34.6003C40.8001 34.8003 40.5001 34.9003 40.2001 34.8003C40.2001 34.8003 35.4001 32.4003 33.2001 34.7003C33.0001 34.7003 32.9001 34.8003 32.8001 34.8003Z" fill="white"/>
<path d="M47.3998 60.3006C44.1998 60.3006 40.3998 59.5006 36.7998 56.8006C36.5998 56.6006 36.4998 56.3006 36.6998 56.1006C36.8998 55.9006 37.1998 55.8006 37.3998 56.0006C46.1998 62.5006 55.7998 57.4006 55.8998 57.4006C56.0998 57.3006 56.3998 57.4006 56.5998 57.6006C56.6998 57.8006 56.5998 58.1006 56.3998 58.3006C56.1998 58.3006 52.3998 60.3006 47.3998 60.3006Z" fill="white"/>
<path d="M42.4001 28.3007C42.3001 28.3007 42.2001 28.3007 42.1001 28.2007C41.9001 28.1007 41.8001 27.7007 41.9001 27.5007C43.3001 25.3007 45.4001 25.5007 46.3001 25.9007C46.6001 26.0007 46.7001 26.3007 46.6001 26.6007C46.5001 26.9007 46.2001 27.0007 45.9001 26.9007C45.8001 26.9007 43.9001 26.1007 42.7001 28.1007C42.7001 28.2007 42.5001 28.3007 42.4001 28.3007Z" fill="black"/>
</svg>
