<svg width="94" height="94" viewBox="0 0 94 94" fill="none" xmlns="http://www.w3.org/2000/svg">
<path d="M93.6999 47.0007C93.6999 53.0007 92.5999 58.8007 90.4999 64.0007C88.8999 68.1007 86.6999 71.9007 83.9999 75.4007C83.4999 76.0007 82.9999 76.6007 82.4999 77.2007C82.0999 77.6007 81.7999 78.0007 81.3999 78.5007C78.7999 81.4007 75.7999 83.9007 72.4999 86.0007C71.4999 86.7007 70.4999 87.3007 69.3999 87.8007C62.6999 91.5007 55.0999 93.5007 46.9999 93.5007C37.4999 93.5007 28.5999 90.6007 21.1999 85.7007C20.9999 85.6007 20.7999 85.4007 20.5999 85.3007C18.8999 84.2007 17.2999 82.9007 15.7999 81.5007C15.5999 81.4007 15.4999 81.2007 15.2999 81.0007C14.5999 80.4007 13.8999 79.7007 13.2999 79.0007C12.9999 78.6007 12.5999 78.3007 12.2999 77.9007L12.1999 77.8007C4.89989 69.6007 0.399902 58.7007 0.399902 46.8007C0.399902 21.0007 21.2999 0.200684 46.9999 0.200684C72.8999 0.300684 93.6999 21.2007 93.6999 47.0007Z" fill="#EDDDD6"/>
<path d="M81.4999 78.5003C78.8999 81.4003 75.8999 83.9003 72.5999 86.0003C71.5999 86.7003 70.5999 87.3002 69.4999 87.8002C62.7999 91.5002 55.1999 93.5003 47.0999 93.5003C37.5999 93.5003 28.6999 90.6003 21.2999 85.7003C21.0999 85.6003 20.8999 85.4002 20.6999 85.3002C18.9999 84.2002 17.3999 82.9003 15.8999 81.5003C15.6999 81.4003 15.5999 81.2003 15.3999 81.0003C14.6999 80.4003 13.9999 79.7003 13.3999 79.0003C15.1999 73.7003 19.1999 66.9003 22.2999 62.0003C25.8999 56.4003 31.8999 52.7003 38.5999 52.2003C47.0999 51.6003 57.4999 52.8002 64.9999 54.3002C68.0999 54.9002 70.8999 57.1003 72.6999 60.4003C75.2999 65.3003 78.9999 72.3003 81.4999 78.5003Z" fill="#F7734F"/>
<path d="M58.7003 13.2005C58.7003 13.2005 58.3002 10.6005 60.8002 11.6005C63.3002 12.7005 62.2002 15.3005 60.8002 15.0005C59.3002 14.7005 58.7003 13.2005 58.7003 13.2005Z" fill="#7772D3"/>
<path d="M63.5 29.9006C63.5 29.9006 63.1 37.0006 59.9 37.3006C56.7 37.6006 52 33.6006 52 33.6006L54.2 25.6006L63.5 29.9006Z" fill="black"/>
<path d="M39.0998 27.9005C39.0998 27.9005 28.6998 24.5006 27.0998 20.1006C25.4998 15.7006 45.2998 22.4005 45.2998 22.4005L39.0998 27.9005Z" fill="#5C5CC6"/>
<path d="M54.2002 43.1006L53.4002 54.4006C53.4002 54.4006 51.4002 57.6006 44.8002 58.1006C39.9002 58.5006 38.2002 57.3006 38.2002 57.3006L38.9002 51.7006L39.6002 46.2006L51.4002 43.7006L54.2002 43.1006Z" fill="#F49282"/>
<path d="M51.5 43.6006C51.5 43.9006 51.4 44.3006 51.2 44.7006C48.7 50.2006 41.8 51.4006 39 51.6006L39.7 46.1006L51.5 43.6006Z" fill="black"/>
<path d="M37.5001 20.7007C37.5001 20.7007 31.5 34.6007 33.8 42.4007C36 50.2007 43.1001 48.9007 47.4001 47.4007C51.6001 45.9007 53.6 43.2007 53.6 43.2007C53.6 43.2007 57.6001 44.5007 60.2001 40.8007C62.8001 37.1007 61.2001 32.9007 58.9001 31.9007C56.6001 30.9007 53.9001 32.6007 53.9001 32.6007L56.0001 28.6007C55.9001 28.6007 46.9001 8.10073 37.5001 20.7007Z" fill="#F49282"/>
<path d="M54.1999 38.7003C53.9999 38.7003 53.8999 38.6003 53.7999 38.5003C53.5999 38.3003 53.7 38.0003 53.9 37.8003L58.9999 34.2003C59.1999 34.0003 59.4999 34.1003 59.6999 34.3003C59.8999 34.5003 59.7999 34.8003 59.5999 35.0003L54.4999 38.6003C54.3999 38.7003 54.2999 38.7003 54.1999 38.7003Z" fill="black"/>
<path d="M58.8 38.7003H58.7L55.4 37.8003C55.1 37.7003 55 37.5003 55 37.2003C55.1 36.9003 55.3 36.8003 55.6 36.8003L58.9 37.7003C59.2 37.8003 59.3 38.0003 59.3 38.3003C59.2 38.5003 59 38.7003 58.8 38.7003Z" fill="black"/>
<path d="M46.8 27.4005C46.6 27.4005 46.5 27.3006 46.4 27.2006C46 26.6006 45.5 26.3006 45 26.2006C44.2 26.1006 43.6 26.6006 43.6 26.6006C43.4 26.8006 43.1 26.7005 42.9 26.5005C42.7 26.3005 42.8 26.0005 43 25.8005C43 25.8005 44 25.0006 45.2 25.2006C46 25.3006 46.7 25.8006 47.3 26.6006C47.5 26.8006 47.4 27.1005 47.2 27.3005C47 27.4005 46.9 27.4005 46.8 27.4005Z" fill="black"/>
<path d="M36.0002 26.4004C35.9002 26.4004 35.7002 26.3004 35.6002 26.2004C35.4002 26.0004 35.5003 25.7004 35.7003 25.5004C36.4003 25.0004 37.0002 24.7004 37.6002 24.8004C38.2002 24.9004 38.5002 25.4004 38.5002 25.4004C38.6002 25.6004 38.5002 25.9004 38.3002 26.1004C38.1002 26.2004 37.8002 26.1004 37.6002 25.9004C37.6002 25.9004 37.5003 25.8004 37.4003 25.8004C37.3003 25.8004 36.9003 25.8004 36.4003 26.3004C36.2003 26.4004 36.1002 26.4004 36.0002 26.4004Z" fill="black"/>
<path d="M37.9001 38.0006C37.7001 38.0006 37.5001 37.9006 37.4001 37.6006C36.6001 34.6006 37.7 31.6006 37.8 31.5006C37.9 31.2006 38.2001 31.1006 38.4001 31.2006C38.7001 31.3006 38.8 31.6006 38.7 31.8006C38.7 31.8006 37.7001 34.7006 38.4001 37.3006C38.5001 37.6006 38.3 37.8006 38 37.9006C38 37.9006 38.0001 38.0006 37.9001 38.0006Z" fill="black"/>
<path d="M36 31.7007H35.9C35.6 31.6007 35.5 31.3007 35.6 31.1007L36.3 28.6007C36.4 28.3007 36.7 28.2007 36.9 28.3007C37.2 28.4007 37.3 28.7007 37.2 28.9007L36.5 31.4007C36.4 31.6007 36.2 31.7007 36 31.7007Z" fill="black"/>
<path d="M44.1001 32.0005H44.0001C43.7001 31.9005 43.6001 31.6005 43.7001 31.4005L44.4001 28.9005C44.5001 28.6005 44.8001 28.5005 45.0001 28.6005C45.3001 28.7005 45.4001 29.0005 45.3001 29.2005L44.6001 31.7005C44.6001 31.8005 44.4001 32.0005 44.1001 32.0005Z" fill="black"/>
<path d="M36.7002 22.7006C36.7002 22.7006 37.5002 21.6006 40.3002 21.6006C43.1002 21.6006 44.7002 23.6006 44.7002 23.6006C44.7002 23.6006 44.9002 28.6006 48.7002 31.2006C52.5002 33.7006 53.9002 32.7006 53.9002 32.7006L56.7002 31.7006L58.7002 27.7006L50.8002 19.1006L41.4002 15.1006L36.7002 20.3006V22.7006Z" fill="black"/>
<path d="M40.7001 41.2006C40.5001 41.2006 40.4002 41.2006 40.4002 41.2006C40.1002 41.2006 39.9001 40.9006 40.0001 40.7006C40.0001 40.4006 40.3001 40.2006 40.5001 40.3006C40.6001 40.3006 42.8001 40.5006 43.7001 38.5006C43.8001 38.3006 44.1002 38.1006 44.4002 38.3006C44.6002 38.4006 44.8001 38.7006 44.6001 39.0006C43.6001 41.0006 41.5001 41.2006 40.7001 41.2006Z" fill="black"/>
<path d="M36.2998 19.7006C36.2998 19.7006 40.1998 8.50062 54.1998 10.9006C68.1998 13.3006 63.4998 31.0006 63.4998 31.0006L57.0998 28.9006L36.2998 19.7006Z" fill="#7772D3"/>
<path d="M32.2998 18.9004C32.2998 18.9004 37.1998 19.1004 49.7998 24.9004C54.0998 26.9004 57.8998 29.3004 57.8998 29.3004C57.8998 29.3004 43.3998 23.2004 37.7998 23.3004C35.5998 23.3004 34.1998 24.1004 34.1998 24.1004L32.2998 18.9004Z" fill="#5C5CC6"/>
<path d="M42.5998 58.4003C40.0998 58.4003 38.3998 58.0003 38.1998 58.0003C37.8998 57.9003 37.7998 57.7003 37.7998 57.4003C37.8998 57.1003 38.0998 57.0003 38.3998 57.0003C38.4998 57.0003 46.6998 58.9003 53.0998 54.2003C53.2998 54.0003 53.5998 54.1003 53.7998 54.3003C53.9998 54.5003 53.8998 54.8003 53.6998 55.0003C49.8998 57.8003 45.6998 58.4003 42.5998 58.4003Z" fill="#46467F"/>
</svg>
