<svg width="77" height="19" viewBox="0 0 77 19" fill="none" xmlns="http://www.w3.org/2000/svg">
<path d="M29 16V5H33V16H29ZM35 16V0H39V16H35ZM41 16V9H45V16H41Z" fill="#D4D4D4"/>
<path d="M41 16V9H45V16H41Z" fill="#FF9F10"/>
<path d="M35 0V16H39V0H35Z" fill="#D00F0F"/>
<path d="M4.94318 15.1705C4.04545 15.1705 3.27273 14.9886 2.625 14.625C1.98106 14.2576 1.48485 13.7386 1.13636 13.0682C0.787879 12.3939 0.613636 11.5966 0.613636 10.6761C0.613636 9.77841 0.787879 8.99053 1.13636 8.3125C1.48485 7.63447 1.97538 7.10606 2.60795 6.72727C3.24432 6.34848 3.99053 6.15909 4.84659 6.15909C5.42235 6.15909 5.95833 6.25189 6.45455 6.4375C6.95455 6.61932 7.39015 6.89394 7.76136 7.26136C8.13636 7.62879 8.42803 8.09091 8.63636 8.64773C8.8447 9.20076 8.94886 9.84848 8.94886 10.5909V11.2557H1.57955V9.75568H6.67045C6.67045 9.4072 6.5947 9.09848 6.44318 8.82955C6.29167 8.56061 6.08144 8.35038 5.8125 8.19886C5.54735 8.04356 5.23864 7.96591 4.88636 7.96591C4.51894 7.96591 4.19318 8.05114 3.90909 8.22159C3.62879 8.38826 3.40909 8.61364 3.25 8.89773C3.09091 9.17803 3.00947 9.49053 3.00568 9.83523V11.2614C3.00568 11.6932 3.08523 12.0663 3.24432 12.3807C3.4072 12.6951 3.63636 12.9375 3.93182 13.108C4.22727 13.2784 4.57765 13.3636 4.98295 13.3636C5.25189 13.3636 5.49811 13.3258 5.72159 13.25C5.94508 13.1742 6.13636 13.0606 6.29545 12.9091C6.45455 12.7576 6.57576 12.572 6.65909 12.3523L8.89773 12.5C8.78409 13.0379 8.55114 13.5076 8.19886 13.9091C7.85038 14.3068 7.39962 14.6174 6.84659 14.8409C6.29735 15.0606 5.66288 15.1705 4.94318 15.1705ZM18.4304 6.27273L15.3793 15H12.652L9.60085 6.27273H12.1577L13.9702 12.517H14.0611L15.8679 6.27273H18.4304ZM23.331 15.1705C22.4484 15.1705 21.6851 14.983 21.0412 14.608C20.401 14.2292 19.9067 13.7027 19.5582 13.0284C19.2098 12.3504 19.0355 11.5644 19.0355 10.6705C19.0355 9.76894 19.2098 8.98106 19.5582 8.30682C19.9067 7.62879 20.401 7.10227 21.0412 6.72727C21.6851 6.34848 22.4484 6.15909 23.331 6.15909C24.2135 6.15909 24.9749 6.34848 25.6151 6.72727C26.259 7.10227 26.7552 7.62879 27.1037 8.30682C27.4522 8.98106 27.6264 9.76894 27.6264 10.6705C27.6264 11.5644 27.4522 12.3504 27.1037 13.0284C26.7552 13.7027 26.259 14.2292 25.6151 14.608C24.9749 14.983 24.2135 15.1705 23.331 15.1705ZM23.3423 13.2955C23.7438 13.2955 24.0791 13.1818 24.348 12.9545C24.617 12.7235 24.8196 12.4091 24.956 12.0114C25.0961 11.6136 25.1662 11.161 25.1662 10.6534C25.1662 10.1458 25.0961 9.69318 24.956 9.29545C24.8196 8.89773 24.617 8.58333 24.348 8.35227C24.0791 8.12121 23.7438 8.00568 23.3423 8.00568C22.937 8.00568 22.5961 8.12121 22.3196 8.35227C22.0469 8.58333 21.8404 8.89773 21.7003 9.29545C21.5639 9.69318 21.4957 10.1458 21.4957 10.6534C21.4957 11.161 21.5639 11.6136 21.7003 12.0114C21.8404 12.4091 22.0469 12.7235 22.3196 12.9545C22.5961 13.1818 22.937 13.2955 23.3423 13.2955Z" fill="#495158"/>
<path d="M51.608 6.27273V8.09091H46.3523V6.27273H51.608ZM47.5455 4.18182H49.9659V12.3182C49.9659 12.5417 50 12.7159 50.0682 12.8409C50.1364 12.9621 50.2311 13.0473 50.3523 13.0966C50.4773 13.1458 50.6212 13.1705 50.7841 13.1705C50.8977 13.1705 51.0114 13.161 51.125 13.142C51.2386 13.1193 51.3258 13.1023 51.3864 13.0909L51.767 14.892C51.6458 14.9299 51.4754 14.9735 51.2557 15.0227C51.036 15.0758 50.7689 15.108 50.4545 15.1193C49.8712 15.142 49.3598 15.0644 48.9205 14.8864C48.4848 14.7083 48.1458 14.4318 47.9034 14.0568C47.661 13.6818 47.5417 13.2083 47.5455 12.6364V4.18182ZM53.1847 15V6.27273H55.6051V15H53.1847ZM54.4006 5.14773C54.0407 5.14773 53.732 5.02841 53.4744 4.78977C53.2206 4.54735 53.0938 4.25758 53.0938 3.92045C53.0938 3.58712 53.2206 3.30114 53.4744 3.0625C53.732 2.82008 54.0407 2.69886 54.4006 2.69886C54.7604 2.69886 55.0672 2.82008 55.321 3.0625C55.5786 3.30114 55.7074 3.58712 55.7074 3.92045C55.7074 4.25758 55.5786 4.54735 55.321 4.78977C55.0672 5.02841 54.7604 5.14773 54.4006 5.14773ZM59.9645 9.95455V15H57.544V6.27273H59.8509V7.8125H59.9531C60.1463 7.30492 60.4702 6.90341 60.9247 6.60795C61.3793 6.30871 61.9304 6.15909 62.5781 6.15909C63.1842 6.15909 63.7126 6.29167 64.1634 6.55682C64.6141 6.82197 64.9645 7.20076 65.2145 7.69318C65.4645 8.18182 65.5895 8.76515 65.5895 9.44318V15H63.169V9.875C63.1728 9.34091 63.0365 8.92424 62.7599 8.625C62.4834 8.32197 62.1027 8.17045 61.6179 8.17045C61.2921 8.17045 61.0043 8.24053 60.7543 8.38068C60.508 8.52083 60.3149 8.72538 60.1747 8.99432C60.0384 9.25947 59.9683 9.57955 59.9645 9.95455ZM71.429 18.4545C70.6449 18.4545 69.9725 18.3466 69.4119 18.1307C68.8551 17.9186 68.4119 17.6288 68.0824 17.2614C67.7528 16.8939 67.5388 16.4811 67.4403 16.0227L69.679 15.7216C69.7472 15.8958 69.8551 16.0587 70.0028 16.2102C70.1506 16.3617 70.3456 16.483 70.5881 16.5739C70.8343 16.6686 71.1335 16.7159 71.4858 16.7159C72.0123 16.7159 72.446 16.5871 72.7869 16.3295C73.1316 16.0758 73.304 15.6496 73.304 15.0511V13.4545H73.2017C73.0956 13.697 72.9366 13.9261 72.7244 14.142C72.5123 14.358 72.2396 14.5341 71.9062 14.6705C71.5729 14.8068 71.1752 14.875 70.7131 14.875C70.0578 14.875 69.4612 14.7235 68.9233 14.4205C68.3892 14.1136 67.9631 13.6458 67.6449 13.017C67.3305 12.3845 67.1733 11.5852 67.1733 10.6193C67.1733 9.63068 67.3343 8.80492 67.6562 8.14205C67.9782 7.47917 68.4063 6.98295 68.9403 6.65341C69.4782 6.32386 70.0672 6.15909 70.7074 6.15909C71.196 6.15909 71.6051 6.24242 71.9347 6.40909C72.2642 6.57197 72.5294 6.77652 72.7301 7.02273C72.9347 7.26515 73.0919 7.50379 73.2017 7.73864H73.2926V6.27273H75.696V15.0852C75.696 15.8277 75.5142 16.4489 75.1506 16.9489C74.7869 17.4489 74.2831 17.8239 73.6392 18.0739C72.9991 18.3277 72.2623 18.4545 71.429 18.4545ZM71.4801 13.0568C71.8703 13.0568 72.1998 12.9602 72.4688 12.767C72.7415 12.5701 72.9498 12.2898 73.0938 11.9261C73.2415 11.5587 73.3153 11.1193 73.3153 10.608C73.3153 10.0966 73.2434 9.65341 73.0994 9.27841C72.9555 8.89962 72.7472 8.60606 72.4744 8.39773C72.2017 8.18939 71.8703 8.08523 71.4801 8.08523C71.0824 8.08523 70.7472 8.19318 70.4744 8.40909C70.2017 8.62121 69.9953 8.91667 69.8551 9.29545C69.715 9.67424 69.6449 10.1117 69.6449 10.608C69.6449 11.1117 69.715 11.5473 69.8551 11.9148C69.9991 12.2784 70.2055 12.5606 70.4744 12.7614C70.7472 12.9583 71.0824 13.0568 71.4801 13.0568Z" fill="#D00F0F"/>
</svg>
